<svg width="96" height="31" viewBox="0 0 96 31" fill="white" xmlns="http://www.w3.org/2000/svg" data-di-rand="1726573645130"><path d="M.32 26.22h7.79v-4.26l-3.943-2.206L.32 26.219zM15.898.034 12.051 6.5l3.942 2.207 3.8-2.13L15.898.035zM.225 8.706l3.942 6.62 3.942-2.207V8.706H.225z" fill="#fff"></path><path d="M12.051 6.5 8.11 4.292v4.413h2.623l1.32-2.207zM8.109 26.219v4.243l3.799-2.114-1.272-2.13H8.11zM.225 17.547l3.942 2.207 1.32-2.222-1.32-2.207-3.942 2.222zM23.687 13.12l2.639-4.414h-5.278l2.64 4.413z" fill="#fff"></path><path d="m15.993 8.706-3.942-2.207-1.32 2.207h5.262zM8.109 21.96v4.259h2.527L8.11 21.96zM10.637 26.219l1.271 2.13 3.8-2.13h-5.071zM10.732 8.706H8.109v4.413l2.623-4.413z" fill="#fff"></path><path d="m8.11 21.96-2.624-4.428-1.319 2.222 3.942 2.207zM15.994 8.706h5.055l-1.256-2.13-3.8 2.13zM8.11 13.12l-3.943 2.206 1.32 2.206 2.622-4.413z" fill="#fff"></path><path d="m8.109 21.96 2.527 4.259h5.071L8.11 21.96zM15.993 8.706h-5.261L8.109 13.12l7.884-4.413zM5.486 17.532l2.623 4.429v-8.842l-2.623 4.413zM21.049 8.706h-5.055l7.693 4.413-2.638-4.413zM30.793 8.706h-2.861V26.22h2.86V8.706zM52.3 22.994c-.509.54-1.478 1.204-2.686 1.204-1.526 0-2.734-1.003-2.893-2.454h7.407c.048-.23.064-.509.064-.786 0-2.886-2.099-5.308-5.04-5.308-3.163 0-5.197 2.515-5.197 5.416 0 3.255 2.4 5.385 5.595 5.385 1.653 0 3.354-.664 4.387-1.852L52.3 22.994zm-5.436-3.302c.127-.94 1.097-1.82 2.289-1.82 1.16 0 2.034.895 2.114 1.82h-4.403zm9.569-3.842h-2.972l4.911 10.37h1.987l4.912-10.37H62.3l-2.925 6.327-2.941-6.327zm16.325-.123c-.302-.046-.556-.093-.97-.093-1.303 0-2.352.37-2.988 1.142v-.926H65.94v10.37H68.8v-6.528c.35-.617 1.351-1.496 2.591-1.496.413 0 .843.046 1.033.108l.334-2.577zm5.58-.093c-3.243 0-5.675 2.423-5.675 5.416 0 2.994 2.448 5.385 5.675 5.385 3.242 0 5.69-2.391 5.69-5.385-.016-2.993-2.463-5.416-5.69-5.416zm0 8.224c-1.67 0-2.814-1.265-2.814-2.823 0-1.559 1.145-2.84 2.814-2.84s2.813 1.281 2.813 2.84c0 1.574-1.144 2.823-2.813 2.823zm9.553 2.361v-6.727c.397-.54 1.383-1.281 2.607-1.281.668 0 1.24.216 1.606.57.397.387.635.927.635 1.945v5.493h2.862v-5.277c0-1.774-.398-2.824-1.097-3.641-.874-1.019-2.226-1.667-3.704-1.667-1.192 0-2.098.309-2.909.957v-.74H85.03v10.368h2.861zM42.937 8.706V26.22h-2.861v-.756a4.575 4.575 0 0 1-2.861.972c-1.59 0-3.084-.679-4.038-1.759a5.435 5.435 0 0 1-1.367-3.626c0-3.055 2.337-5.416 5.246-5.416 1.16 0 2.178.324 3.02.957V8.706h2.861zm-5.23 15.152c1.67 0 2.814-1.265 2.814-2.823 0-1.559-1.144-2.84-2.813-2.84h-.271c-1.669 0-2.75 1.343-2.75 2.84 0 1.62 1.208 2.823 2.814 2.823H37.708zm-11.143-7.962V26.22H23.688v-.756a4.575 4.575 0 0 1-2.861.972c-1.59 0-3.084-.679-4.038-1.759a5.435 5.435 0 0 1-1.367-3.626c0-3.055 2.337-5.416 5.246-5.416 1.16 0 2.178.324 3.02.957v-.71h2.877v.015zm-5.23 7.962c1.67 0 2.814-1.265 2.814-2.823 0-1.559-1.144-2.84-2.813-2.84h-.271c-1.669 0-2.75 1.343-2.75 2.84 0 1.62 1.209 2.823 2.814 2.823H21.335z" fill="#fff"></path></svg>