<svg width="96" height="57" viewBox="0 0 96 57" fill="white" xmlns="http://www.w3.org/2000/svg" data-di-rand="1726547228805">
<path d="m93.86 22.04-1.246 6.665h-.031l-3.679-6.665h-1.631l-1.924 10.451h2.108l1.232-6.526h.03l3.602 6.526h1.709L96 22.04h-2.14zM73.574 32.491h2.14l1.954-10.451h-2.031l-3.633 4.31-2.216-4.31h-1.663l-1.939 10.451h2.124l1.231-6.603h.031l1.94 3.71 3.278-3.818h.031l-1.247 6.711z" fill="#fff"></path><path d="M61.414 22.04H59.26l-1.94 10.451h2.125l.939-4.894 3.232 4.894h2.678L62.6 27.027l4.587-4.987h-2.555l-4.079 4.618.862-4.618zM68.695 39.264h-3.356l.493-2.663h4.125l.308-1.631H64l-1.94 10.436h6.758l1.554-1.617h-5.88l.555-2.909h3.34l.308-1.616z" fill="#fff"></path><path d="M55.611 21.794c-.57 0-1.139.03-1.662.185-2.617.723-4.51 3.186-4.51 6.233 0 2.155 1.37 4.526 4.171 4.526 2.14 0 3.217-1 4.08-1.54l-.863-1.354c-.539.37-.923.693-1.508.923a3.92 3.92 0 0 1-1.447.262c-1.247 0-2.232-1.108-2.232-2.847.015-2.217 1.278-4.649 3.617-4.649 1.14 0 1.509.462 1.909.878l1.077-1.324c-.616-.739-1.539-1.293-2.632-1.293zM56.058 45.406h2.14L59.86 36.6h2.601l1.57-1.631h-8.804l-.308 1.631h2.786l-1.647 8.805z" fill="#fff"></path><path d="M48.485 26.35H45.13l.492-2.694h4.125l.293-1.616h-6.25l-1.939 10.451h6.973l1.57-1.616h-6.126l.57-2.909h3.34l.307-1.616zM48.824 45.406h6.049l1.57-1.617h-5.187l1.631-8.82h-2.124l-1.94 10.437zM47.638 34.97l-1.308 7.05a2.256 2.256 0 0 1-2.247 1.877c-1.078 0-1.724-.877-1.555-1.878l1.308-7.05h-2.14l-1.261 6.758c-.477 2.478 1.046 3.894 3.294 3.894 2.786 0 4.294-1.355 4.771-3.894l1.262-6.757h-2.124zM27.952 33.353c-.616 0-1.2.016-1.77.17-2.94.754-5.095 3.463-5.095 6.788-.015 2.863 1.924 5.371 4.756 5.371 2.278 0 3.402-.97 4.218-1.585l-.8-1.416c-.755.662-1.401 1.247-2.971 1.247-1.663 0-2.91-1.416-2.91-3.54 0-2.678 1.463-5.372 4.249-5.372 1.015 0 1.754.646 2.278 1.216l1.123-1.309c-.6-.584-1.785-1.57-3.078-1.57zM28.044 5.386C25.89 1.984 21.518.306 17.794.306 8.126.307 0 8.712 0 18.917a15.9 15.9 0 0 0 1 5.572v-.016c-.123-.446-.23-1.385-.23-1.708 0-2.325 1.293-4.233 3.124-5.172.139-.37.308-.739.524-1.108 1.446-2.679 4.971-5.51 9.389-5.51 3.91 0 7.68 2.323 11.975 2.323.246 0 .492-.015.723-.061.015-2.324-.893-4.525-2.186-6.357-1.308-1.862-3.74-3.202-5.833-3.386.354-.016.677-.077 1.016-.077 4.371-.03 7.896 3.663 7.896 8.28 0 .478-.031.924-.093 1.355 1.263-.446 2.063-1.508 2.11-3.14.03-1.077-.37-2.986-1.37-4.525z" fill="#fff"></path><path d="M24.12 15.868c-4.11.016-8.22-2.57-12.992-2.57-3.617 0-4.879 1.231-6.202 3.278a4.544 4.544 0 0 0-.37.724 5.85 5.85 0 0 1 1.94-.354c4.11-.016 8.219 2.57 13.006 2.57 3.617 0 4.88-1.231 6.187-3.278.139-.216.262-.462.37-.724a5.85 5.85 0 0 1-1.94.354z" fill="#fff"></path><path d="M29.676 8.48c-.154-.4-.077-.123-.077-.123s.23 1.355.23 1.709a5.794 5.794 0 0 1-3.124 5.187c-.138.37-.323.739-.523 1.108-1.447 2.694-4.956 5.51-9.39 5.541-3.909 0-7.68-2.324-11.974-2.324-.246 0-.493.015-.724.061-.015 2.325.893 4.526 2.186 6.357 1.308 1.863 3.74 3.202 5.834 3.387-.354.015-.678.077-1.032.077-4.371.03-7.896-3.664-7.896-8.281 0-.477.031-.924.093-1.355-1.263.446-2.063 1.509-2.125 3.14-.03 1.031.37 2.94 1.386 4.51 2.185 3.417 6.557 5.156 10.343 5.156 9.697 0 17.793-7.988 17.793-18.316.016-2.094-.323-4.064-1-5.834zM80.054 28.413l1.555-3.109h.077l.615 3.11h-2.247zm2.894-6.372h-1.34l-5.895 10.436h2.294l1.262-2.447h3.325l.492 2.447h2.309L82.948 22.04zM73.297 39.295l.508-2.709h.77c1.492 0 1.785.6 1.646 1.355-.169.954-.739 1.354-1.97 1.354h-.954zm2.278 1.34c1.031-.124 2.54-.74 2.878-2.71.308-1.754-.939-2.985-3.294-2.985h-3.217l-1.94 10.45h2.14l.878-4.71h.046l3.063 4.71h2.77l-3.324-4.755zM39.48 28.967c-.307 1.616-1.677 1.908-3.586 1.908h-1.277l.692-3.848h1.278c1.693 0 3.217.277 2.894 1.94zm-3.262-6.65h1c1.585 0 2.432.385 2.201 1.54-.17.939-.785 1.539-2.555 1.539h-1.247l.6-3.079zm3.355 3.848v-.03c.523-.262 1.8-.6 2.078-2.263.385-2.216-1.278-3.17-3.94-3.17h-3.34l-2.202 11.79h4.064c3.448 0 5.064-1.201 5.433-3.125.339-1.724-.954-2.986-2.093-3.202zM35.124 43.882c-.246.062-.508.062-.77.062-1.03 0-2.108-1.17-2.108-2.956 0-1.708.877-3.863 2.524-4.417.308-.108.647-.123.985-.123 1.032 0 2.11 1.154 2.11 2.924 0 1.786-.909 4.064-2.74 4.51zm.862-9.143c-.63 0-1.216.077-1.77.247-2.447.785-4.063 3.247-4.063 6.14 0 2.156 1.293 4.48 3.971 4.48.554 0 1.062-.03 1.57-.185 2.57-.739 4.264-3.263 4.264-6.218-.016-2.124-1.309-4.464-3.972-4.464zM26.259 55.196l-.247 1.43h-4.37l1.384-7.68h1.57l-1.139 6.25h2.802zM26.844 56.627l1-5.572h1.57l-1.016 5.572h-1.554zm1.985-6.28c-.446 0-.754-.323-.754-.8 0-.57.431-.924.893-.924s.785.323.785.816c0 .57-.416.923-.924.908zM29.753 56.627l.77-4.341h-.678l.231-1.247h.693l.046-.277c.108-.662.354-1.37.893-1.831.43-.385.985-.524 1.508-.524.37 0 .662.062.831.139l-.261 1.308a1.171 1.171 0 0 0-.493-.092c-.508 0-.816.462-.908 1.016l-.062.277h1.062l-.23 1.246h-1.047l-.77 4.341-1.585-.015zM37.403 56.303c-.616.34-1.386.447-1.97.447-1.509 0-2.294-.893-2.294-2.355 0-1.693 1.17-3.463 3.094-3.463 1.062 0 1.847.63 1.847 1.693 0 1.416-1.308 1.924-3.448 1.862.016.154.062.4.17.57.2.277.554.43 1.015.43.57 0 1.062-.138 1.478-.353l.108 1.17zm-1.386-4.186c-.723 0-1.154.63-1.262 1.154 1.232.016 1.832-.154 1.832-.692.015-.262-.2-.462-.57-.462zM40.773 54.842a3.299 3.299 0 0 0 1.724.492c.6 0 1.155-.292 1.155-.893 0-.446-.324-.723-.985-1.093-.77-.43-1.509-1.046-1.509-2.031 0-1.555 1.278-2.494 2.863-2.494.893 0 1.416.216 1.724.385l-.493 1.37a2.805 2.805 0 0 0-1.354-.323c-.739 0-1.124.384-1.124.8 0 .447.447.739 1.062 1.093.893.477 1.463 1.108 1.463 2.016 0 1.709-1.355 2.586-2.986 2.586-1.016-.015-1.755-.277-2.094-.554l.554-1.354zM49.64 56.442c-.34.17-.878.292-1.51.292-1.308 0-2.231-.846-2.231-2.278 0-1.985 1.447-3.54 3.463-3.54.447 0 .847.092 1.078.185l-.385 1.262a1.747 1.747 0 0 0-.708-.139c-1.108 0-1.801 1-1.801 2.032 0 .754.462 1.154 1.047 1.154.446 0 .77-.107 1.062-.23l-.016 1.262zM50.486 56.627l1.016-5.572h1.57l-1.016 5.572h-1.57zm1.985-6.28c-.43 0-.754-.323-.754-.8 0-.57.431-.924.893-.924s.785.323.785.816c0 .57-.416.923-.924.908zM57.628 56.303c-.616.34-1.385.447-1.97.447-1.509 0-2.294-.893-2.294-2.355 0-1.693 1.17-3.463 3.079-3.463 1.062 0 1.847.63 1.847 1.693 0 1.416-1.309 1.924-3.448 1.862.015.154.062.4.17.57.2.277.553.43 1.015.43.57 0 1.062-.138 1.478-.353l.123 1.17zm-1.37-4.186c-.724 0-1.154.63-1.262 1.154 1.231.016 1.831-.154 1.831-.692 0-.262-.215-.462-.569-.462zM58.52 56.626l.662-3.77c.139-.709.216-1.31.293-1.817h1.37l-.093.923h.031c.493-.723 1.154-1.062 1.863-1.062.861 0 1.354.57 1.354 1.524 0 .262-.046.662-.077.94l-.585 3.247h-1.57l.554-3.094c.031-.2.062-.4.062-.616 0-.4-.139-.677-.539-.677-.508 0-1.108.677-1.323 1.909l-.447 2.478-1.555.015zM68.171 56.442c-.338.17-.877.292-1.508.292-1.308 0-2.232-.846-2.232-2.278 0-1.985 1.447-3.54 3.463-3.54.447 0 .847.092 1.078.185l-.385 1.262a1.77 1.77 0 0 0-.723-.139c-1.109 0-1.801 1-1.801 2.032 0 .754.462 1.154 1.046 1.154.447 0 .77-.107 1.062-.23v1.262zM73.25 56.303c-.615.34-1.384.447-1.985.447-1.508 0-2.278-.893-2.278-2.355 0-1.693 1.17-3.463 3.079-3.463 1.062 0 1.847.63 1.847 1.693 0 1.416-1.309 1.924-3.448 1.862.015.154.061.4.17.57.2.277.553.43 1.015.43.57 0 1.062-.138 1.478-.353l.123 1.17zm-1.384-4.186c-.74 0-1.155.63-1.263 1.154 1.232.016 1.832-.154 1.832-.692.016-.262-.2-.462-.57-.462zM74.328 55.149c.308.154.862.4 1.37.4.446 0 .662-.231.662-.508 0-.262-.17-.462-.662-.724-.6-.323-1.123-.785-1.123-1.493 0-1.17.954-1.924 2.339-1.924.616 0 1.108.139 1.355.277l-.37 1.17c-.215-.092-.6-.246-1.062-.246-.43 0-.693.185-.693.492 0 .231.216.416.647.647.585.308 1.185.754 1.185 1.54 0 1.277-1.031 1.97-2.447 1.97-.662-.016-1.309-.2-1.616-.432l.415-1.17z" fill="#fff"></path>
</svg>