<svg xmlns="http://www.w3.org/2000/svg" width="24" height="24" fill="#49a8b2" viewBox="0 0 24 24" aria-hidden="true" class="fill-blue-0" data-di-rand="1720416331286">
<path d="M13 12.586l3.293-3.293c.39-.39 1.024-.39 1.414 0 .39.39.39 1.024 0 1.414l-5 5M13 12.586V3c0-.552-.448-1-1-1s-1 .448-1 1v9.586L7.707 9.293c-.39-.39-1.024-.39-1.414 0-.39.39-.39 1.024 0 1.414l5 5c.096.096.206.168.324.217.118.049.247.076.383.076.274 0 .522-.11.703-.289">
</path>
<path d="M20 15c0-.552.448-1 1-1s1 .448 1 1v4c0 1.657-1.343 3-3 3H5c-1.657 0-3-1.343-3-3v-4c0-.552.448-1 1-1s1 .448 1 1v4c0 .552.448 1 1 1h14c.552 0 1-.448 1-1v-4z">
</path>
</svg>