<svg width="96" height="28" viewBox="0 0 96 28" fill="white" xmlns="http://www.w3.org/2000/svg" data-di-rand="1726573645131"><path d="M37.43 27.481v-4.23h.892c.641 0 1.108.05 1.398.152.416.144.741.393.976.749.235.355.351.776.351 1.267 0 .425-.093.798-.278 1.119a1.76 1.76 0 0 1-.724.712c-.299.154-.714.231-1.25.231h-1.364zm.412-.4h.497c.593 0 1.004-.037 1.234-.11.323-.104.577-.29.763-.56.185-.268.277-.597.277-.985 0-.408-.1-.757-.302-1.047-.2-.288-.48-.488-.838-.594-.268-.08-.711-.12-1.328-.12h-.303v3.415zM41.832 27.48V23.25h.093l2.86 3.243V23.25h.422v4.229h-.096l-2.836-3.202v3.202h-.443zM47.76 23.251l2.002 4.23H49.3l-.676-1.392h-1.851l-.67 1.392h-.478l2.03-4.23h.106zm-.055.9-.737 1.53h1.468l-.731-1.53zM.48 23.251H.048v4.23h.43v-4.23zM1.315 27.48V23.25h.093l2.859 3.243V23.25h.423v4.229h-.097l-2.835-3.202v3.202h-.443zM5.526 23.665v-.414H7.88v.414h-.958v3.815h-.438v-3.815h-.958zM8.668 23.251h2.461v.414h-2.03v1.325h2.013v.415H9.098v1.662h2.014v.414H8.668v-4.23zM16.092 23.962l-.334.311a2.535 2.535 0 0 0-.786-.527 2.153 2.153 0 0 0-.833-.179c-.336 0-.658.082-.963.244a1.79 1.79 0 0 0-.708.662c-.166.28-.251.575-.251.885 0 .317.086.62.26.907.173.286.413.51.717.675.305.163.64.245 1.005.245.441 0 .816-.123 1.121-.368.307-.246.487-.564.543-.955h-1.37v-.408h1.852c-.003.654-.202 1.173-.592 1.558-.391.384-.912.576-1.566.576-.794 0-1.422-.267-1.887-.8a2.106 2.106 0 0 1-.535-1.422c0-.402.103-.773.307-1.119.205-.346.485-.614.841-.809a2.473 2.473 0 0 1 1.208-.291c.363 0 .706.063 1.028.193.325.13.638.335.943.622zM16.988 23.251h.857c.476 0 .8.02.97.059.254.057.462.18.62.37.16.19.24.423.24.698 0 .23-.055.432-.165.607-.11.176-.266.307-.471.395-.205.09-.486.134-.846.138l1.544 1.963h-.531l-1.545-1.963h-.241v1.963h-.43v-4.23h-.002zm.43.414v1.438l.74.007c.286 0 .498-.028.636-.08a.664.664 0 0 0 .322-.258.708.708 0 0 0 .115-.394.674.674 0 0 0-.424-.636c-.126-.049-.338-.073-.63-.073h-.759v-.004zM22.288 23.251l2.002 4.23h-.463l-.677-1.392H21.3l-.67 1.392h-.478l2.029-4.23h.107zm-.055.9-.737 1.53h1.468l-.731-1.53zM24.085 23.665v-.414h2.354v.414h-.958v3.815h-.438v-3.815h-.958zM27.275 23.251h2.461v.414h-2.03v1.325h2.013v.415h-2.014v1.662h2.014v.414h-2.444v-4.23zM30.572 27.481v-4.23h.892c.64 0 1.107.05 1.397.152.417.144.742.393.977.749.234.355.351.776.351 1.267 0 .425-.093.798-.278 1.119a1.76 1.76 0 0 1-.725.712c-.298.154-.713.231-1.25.231h-1.364zm.412-.4h.496c.593 0 1.005-.037 1.235-.11.323-.104.576-.29.763-.56.185-.268.276-.597.276-.985 0-.408-.1-.757-.301-1.047-.2-.288-.48-.488-.838-.594-.269-.08-.712-.12-1.328-.12h-.303v3.415zM52.026 23.665v-.414h2.354v.414h-.958v3.815h-.438v-3.815h-.958zM55.243 23.189h2.462v.414h-2.032v1.325h2.014v.414h-2.014v1.663h2.014v.414h-2.444v-4.23zM62.596 24.036l-.338.256a1.86 1.86 0 0 0-.673-.546 1.983 1.983 0 0 0-.863-.185c-.343 0-.66.08-.951.243a1.77 1.77 0 0 0-.68.653c-.161.274-.241.58-.241.92 0 .516.18.947.538 1.293.36.344.813.517 1.36.517.6 0 1.104-.23 1.509-.696l.338.252a2.159 2.159 0 0 1-.802.623c-.32.147-.678.22-1.072.22-.752 0-1.345-.246-1.78-.74-.363-.415-.544-.918-.544-1.506 0-.62.22-1.14.66-1.563.442-.422.994-.633 1.658-.633.402 0 .763.077 1.087.234.323.159.59.376.794.658zM63.24 23.251h.427v1.774h2.188V23.25h.43v4.23h-.43V25.44h-2.188v2.042h-.428v-4.23zM67.121 27.48V23.25h.093l2.858 3.243V23.25h.424v4.229H70.4l-2.836-3.202v3.202h-.443zM73.373 23.145c.65 0 1.195.214 1.633.64.438.427.658.953.658 1.579 0 .619-.22 1.145-.656 1.575-.438.431-.972.647-1.601.647-.637 0-1.175-.214-1.613-.643a2.105 2.105 0 0 1-.656-1.56c0-.406.1-.782.3-1.13.2-.347.471-.619.816-.815a2.238 2.238 0 0 1 1.12-.293zm.019.41c-.319 0-.62.082-.905.245a1.783 1.783 0 0 0-.906 1.582c0 .502.176.927.53 1.272.354.346.78.52 1.279.52.333 0 .641-.08.925-.238.285-.159.504-.377.664-.654.16-.276.239-.582.239-.92 0-.336-.079-.639-.239-.91a1.756 1.756 0 0 0-.671-.652 1.836 1.836 0 0 0-.916-.244zM76.425 23.251h.43v3.82h1.653v.41h-2.083v-4.23zM80.935 23.145c.65 0 1.194.214 1.632.64.439.427.659.953.659 1.579 0 .619-.22 1.145-.657 1.575-.438.431-.971.647-1.6.647-.637 0-1.175-.214-1.613-.643a2.105 2.105 0 0 1-.657-1.56c0-.406.1-.782.3-1.13.2-.347.472-.619.816-.815a2.238 2.238 0 0 1 1.12-.293zm.018.41c-.316 0-.62.082-.904.245a1.783 1.783 0 0 0-.907 1.582c0 .502.177.927.53 1.272.355.346.781.52 1.28.52.333 0 .64-.08.924-.238a1.72 1.72 0 0 0 .665-.654c.158-.276.238-.582.238-.92a1.76 1.76 0 0 0-.238-.91 1.78 1.78 0 0 0-.671-.652 1.836 1.836 0 0 0-.917-.244zM88.192 23.962l-.333.311a2.535 2.535 0 0 0-.787-.527 2.019 2.019 0 0 0-1.796.066 1.779 1.779 0 0 0-.708.661c-.166.28-.251.575-.251.885 0 .317.086.62.26.907.173.286.413.51.718.675.305.163.64.245 1.004.245.442 0 .816-.123 1.121-.368a1.45 1.45 0 0 0 .543-.955h-1.369v-.408h1.85c-.002.654-.2 1.173-.59 1.558-.392.384-.913.576-1.568.576-.795 0-1.423-.267-1.886-.8a2.106 2.106 0 0 1-.535-1.422c0-.402.104-.773.307-1.119.205-.346.485-.614.841-.809a2.473 2.473 0 0 1 1.208-.291c.363 0 .706.063 1.028.193.323.13.636.335.943.622zM89.518 23.251h-.43v4.23h.43v-4.23zM90.314 23.251h2.463v.414h-2.033v1.325h2.014v.415h-2.014v1.662h2.014v.414h-2.444v-4.23zM93.096 26.693l.365-.217c.257.466.555.698.891.698a.87.87 0 0 0 .407-.098.705.705 0 0 0 .386-.62.71.71 0 0 0-.145-.417c-.135-.188-.38-.414-.736-.678-.358-.267-.581-.46-.668-.578a1.046 1.046 0 0 1-.227-.647.95.95 0 0 1 .513-.861c.164-.087.34-.131.53-.131.203 0 .392.049.568.149.177.098.364.28.56.545l-.35.262c-.161-.21-.3-.349-.413-.416a.721.721 0 0 0-.373-.102.596.596 0 0 0-.425.156.503.503 0 0 0-.165.382c0 .091.02.181.059.267.038.086.11.18.213.281.056.054.241.195.555.423.371.27.626.51.764.72.138.212.207.423.207.636 0 .306-.118.573-.355.8a1.204 1.204 0 0 1-.863.338c-.26 0-.498-.069-.71-.206-.213-.135-.408-.364-.588-.686zM58.052 20.117l-.702-.031c-4.827-.212-9.485-4.046-13.842-7.955-4.498-4.04-9.15-8.218-14.034-8.585a9.668 9.668 0 0 0-.69-.026c-4.307 0-8.384 3.072-12.187 6.217l-.46.391-.435-.39-.69-.622-.531-.506.693-.62C19.465 4.14 24.467.04 29.496.143c5.154.107 9.74 3.943 14.17 7.652l.024.02c4.345 3.636 8.84 7.402 13.679 7.316l.681-.012v4.999h.002z" fill="#fff"></path><path d="M57.376.172c-3.807.031-7.276 3.06-10.63 5.993-.78.68-1.585 1.383-2.363 2.019l-.127.103c.533.446 1.07.891 1.61 1.328.646-.555 1.306-1.151 1.945-1.728 3.07-2.767 6.243-5.629 9.611-5.827l.647-.037V.167l-.693.005zM64.516.165h-3.842V20.13h3.842V.165zM66.774.165h4.392c2.22 0 4.126.192 5.716.573 1.589.383 2.917.996 3.986 1.838 1.225.956 2.146 2.054 2.759 3.297.613 1.241.92 2.605.92 4.09a9.59 9.59 0 0 1-.83 3.961 9.28 9.28 0 0 1-2.412 3.238c-1.055.92-2.36 1.647-3.914 2.175-1.552.529-3.33.79-5.334.79h-5.283V.166zm3.622 18.499h1.061a10.5 10.5 0 0 0 3.449-.557 7.908 7.908 0 0 0 2.804-1.653c.794-.73 1.422-1.633 1.884-2.707.46-1.073.691-2.313.691-3.716 0-1.225-.218-2.354-.655-3.382a7.897 7.897 0 0 0-1.82-2.656c-.777-.742-1.705-1.319-2.784-1.728-1.08-.411-2.258-.616-3.532-.616h-1.098v17.015z" fill="#fff"></path><path d="M96 .165v2.242h-5.128V20.13h-3.845V2.407H81.9V.165H96zM41.404 10.838c-3.808 3.204-7.905 6.33-12.434 6.33h-.042c-4.625-.029-8.786-3.4-12.79-7.042v.002l-.434-.39-.69-.622-.531-.507.001-.001C10.241 4.695 5.85.7.807.13L.044.044V5.19l.65.033c4.888.245 9.345 4.056 13.66 7.745 4.638 3.965 9.021 7.712 14.08 7.712.167 0 .334-.003.504-.013 5.33-.282 10.134-4.709 13.994-8.266l.433-.4c-.538-.483-1.08-.968-1.621-1.447l-.34.284z" fill="#fff"></path><path d="M11.874 10.875c-.783.652-1.57 1.348-2.33 2.023C6.65 15.462 3.658 18.114.641 18.48l-.611.073v1.882l.75-.057c3.668-.274 6.995-3.127 10.212-5.885a84.192 84.192 0 0 1 2.588-2.161l.016-.012c-.572-.485-1.145-.971-1.723-1.446z" fill="#fff"></path></svg>