<svg width="96" height="44" viewBox="0 0 96 44" fill="white" xmlns="http://www.w3.org/2000/svg" data-di-rand="1726573645128"><path d="M95.152 35.67c-5.324 1.25-10.843 2.212-16.458 2.693-11.037.673-22.17.962-33.11.192-9.1-.673-17.717-2.5-26.14-5.098 2.808-4.04 3.776-8.849 5.229-13.465A16.154 16.154 0 0 0 36.096 12.2c1.161-2.405 2.323-5.482.968-8.176-.388-.865-1.065-1.346-1.84-2.02-2.71-1.73-6.486-1.057-9.003.578-5.906 3.078-6.874 9.714-8.52 15.389-1.84.096-3.582-.481-5.131-.866-.29.577-.58 1.25-.678 1.828 1.646.577 3.389 1.154 5.325 1.25-.774 3.366-1.84 6.444-3.001 9.522-.388.674-.388 1.54-1.065 2.02-3.292-.77-7.648-1.924-10.843 0-.968.77-1.55 1.828-1.55 2.982.194 1.635 1.26 2.885 2.615 3.559 4.55 2.115 9.971.673 13.65-2.02 2.905.962 5.712 2.02 8.617 2.885 9.003 2.405 18.2 4.52 28.075 4.136v.289c14.329 0 28.463-2.213 41.727-5.675l.193-.193-.484-2.02zM28.932 6.526c.678-1.058 1.743-2.404 3.195-2.5.678.096 1.259 0 1.743.577 1.452 1.346.968 3.847.29 5.482-1.452 3.847-5.034 6.636-8.907 7.598.969-3.943 1.84-7.694 3.68-11.157zM4.73 36.44c-.387-.288-.968-.673-.968-1.25.097-.481.29-.962.774-1.25 2.13-1.155 4.55 0 6.584.673l.387.192c-1.743 1.443-4.357 2.597-6.777 1.635z" fill="#fff"></path><path d="M52.554 16.913c1.453.096 3.292-.192 4.066-1.635.387-.673.29-1.635-.097-2.308-.677-.962-1.839-1.25-2.904-1.443-1.549-.192-2.904.29-3.775 1.443-.484.673-.58 1.924 0 2.597.58.865 1.646 1.25 2.71 1.346zM32.03 20.088c-3.098 1.154-5.808 4.424-5.808 7.887 0 2.02 1.258 3.655 2.904 4.713 5.228 3.077 11.811.577 16.458-1.924 0 .096.194.096.097.192.194 1.443 1.646 2.79 3.001 3.078 3.582.481 6.874-.962 9.585-3.078 1.065 2.02 3.485 3.078 5.905 3.367h.097c3.292.096 6.002-1.443 8.423-3.463.774 1.539 2.033 2.5 3.485 3.174 2.71.866 5.712 0 7.745-1.923.29.769.968 1.442 1.55 1.827 3.097 1.443 6.486-.385 8.906-1.924a7.944 7.944 0 0 0-.58-2.02c-.97.481-2.421 1.347-3.486.481-.194-.288-.387-.673-.29-1.058l2.71-9.522c-1.936 0-3.97-.096-6.002 0l-.484 1.443c-.29-.385-.581-.77-.968-1.058-2.034-1.443-5.035-.962-7.165-.096-3.291 1.539-5.905 4.617-5.905 8.368-1.743 1.539-4.066 3.27-6.487 2.212-1.258-.673-1.161-2.308-.968-3.559.388-2.02.968-4.232 3.001-5.097 1.356-.578 2.614.288 3.582 1.058.29-.866.581-1.828.775-2.79-2.71-1.731-6.874-1.25-9.585.289-2.71 1.635-5.13 4.52-4.84 7.983a6.36 6.36 0 0 1-1.646 1.154c-.871.385-2.227 1.154-3.195.289-.193-.289-.29-.674-.29-1.155.871-3.077 1.742-6.251 2.614-9.425-2.227 0-4.55-.097-6.68 0l-2.42 8.271c-1.84 1.25-3.776 2.02-5.906 2.597-2.033.481-4.647.866-6.293-.48-.484-.482-.678-1.251-.484-2.02 3.582.288 7.454-.193 9.681-2.79.678-.962 1.162-2.404.581-3.655l-.484-.866c-3.001-2.212-7.842-1.635-11.133-.48zm48.213 4.04c.581-1.059 1.356-1.924 2.517-2.405.872-.193 1.646.288 2.033.865.775 2.116-.58 4.04-1.065 5.867-.387 1.155-1.452 2.309-2.71 2.598a1.787 1.787 0 0 1-1.743-.77c-.774-2.02.387-4.136.968-6.156zm-41.242-2.31c.29 1.348-.387 2.79-1.549 3.656-1.162.673-2.517.962-3.872.673.58-1.731 1.161-3.655 2.613-4.809.872-.289 2.42-.673 2.808.48z" fill="#fff"></path></svg>