<svg xmlns="http://www.w3.org/2000/svg" width="120" height="25" fill="none" viewBox="0 0 120 25" data-cy="abcam-logo" data-testid="abcam-logo" class="cursor-pointer">
    <path fill="#FFFFFF" d="M14.902 15.47c0 2.924-2.417 5.307-5.448 5.307-2.923 0-5.304-2.347-5.304-5.234 0-2.924 2.417-5.27 5.376-5.27 2.959 0 5.376 2.31 5.376 5.198zm4.078-5.125h2.31V6.519h-6.424v2.563c-1.48-1.986-3.247-2.852-5.7-2.852C4.15 6.23 0 10.49 0 15.615c0 5.053 4.077 9.168 9.02 9.168 2.527 0 4.33-.794 5.846-2.67v2.382h6.423v-3.827h-2.31V10.345zm21.289 5.053c0 3.069-2.418 5.595-5.413 5.595s-5.485-2.563-5.485-5.595c0-2.96 2.418-5.342 5.449-5.342 3.031 0 5.449 2.383 5.449 5.342zM29.588.455h-6.422V4.28h2.309v16.387h-2.31v3.827h6.423v-2.672c1.624 2.094 3.428 2.96 5.954 2.96 4.835 0 8.876-4.187 8.876-9.24 0-5.09-4.185-9.313-9.237-9.313-2.418 0-4.15.902-5.593 2.888V.455zm33.69 6.064h-3.536v1.768c-1.516-1.552-3.103-2.237-5.124-2.274-4.944 0-9.093 4.368-9.093 9.494 0 5.234 4.258 9.493 9.454 9.493 4.113 0 7.65-2.563 8.984-6.533h-4.582c-.83 1.588-2.382 2.526-4.33 2.526-2.995 0-5.377-2.418-5.377-5.45s2.346-5.487 5.269-5.487c1.804 0 3.32.83 4.51 2.455h3.825V6.519zm16.526 8.952c0 2.923-2.418 5.306-5.449 5.306-2.923 0-5.304-2.347-5.304-5.234 0-2.924 2.418-5.27 5.376-5.27 2.96 0 5.377 2.31 5.377 5.198zm4.077-5.126h2.31V6.519h-6.423v2.563c-1.48-1.986-3.248-2.852-5.701-2.852-5.016 0-9.166 4.26-9.166 9.385 0 5.053 4.078 9.168 9.021 9.168 2.526 0 4.33-.794 5.846-2.67v2.382h6.423v-3.827h-2.31V10.345zm10.392-3.826h-6.026v3.826h2.31v10.323h-2.31v3.827h8.768v-3.827H94.67v-5.847c0-2.78 1.48-4.548 3.788-4.548 2.418 0 3.537 1.444 3.573 4.62v5.775h-2.31v3.827h8.733v-3.827h-2.382v-6.064c0-2.67 1.516-4.331 3.933-4.331 2.346 0 3.572 1.48 3.572 4.331v6.064h-2.309v3.827H120v-3.827h-2.309v-7.074c0-1.914-.253-3.032-.866-4.151-1.118-1.95-3.392-3.213-5.773-3.213-2.671 0-4.799 1.336-5.99 3.79-1.263-2.527-3.139-3.79-5.593-3.79-2.165 0-3.897 1.047-5.196 3.104V6.52z"></path>
</svg>