<svg width="24" height="24" viewBox="0 0 24 24" fill="none" xmlns="http://www.w3.org/2000/svg">
<path d="M4 5C3.44772 5 3 5.44772 3 6C3 6.55228 3.44772 7 4 7V5ZM20 7C20.5523 7 21 6.55228 21 6C21 5.44772 20.5523 5 20 5V7ZM4 11C3.44772 11 3 11.4477 3 12C3 12.5523 3.44772 13 4 13V11ZM20 13C20.5523 13 21 12.5523 21 12C21 11.4477 20.5523 11 20 11V13ZM4 17C3.44772 17 3 17.4477 3 18C3 18.5523 3.44772 19 4 19V17ZM20 19C20.5523 19 21 18.5523 21 18C21 17.4477 20.5523 17 20 17V19ZM4 7H20V5H4V7ZM4 13H20V11H4V13ZM4 19H20V17H4V19Z" fill="white"/>
</svg>
