<svg width="25" height="25" viewBox="0 0 25 25" fill="none" xmlns="http://www.w3.org/2000/svg">
<path d="M24.0078 4.95703L16.2148 12.75L24.0078 20.6172C24.9727 21.5078 24.9727 23.0664 24.0078 23.957C23.1172 24.9219 21.5586 24.9219 20.668 23.957L12.875 16.1641L5.00781 23.957C4.11719 24.9219 2.55859 24.9219 1.66797 23.957C0.703125 23.0664 0.703125 21.5078 1.66797 20.6172L9.46094 12.75L1.66797 4.95703C0.703125 4.06641 0.703125 2.50781 1.66797 1.61719C2.55859 0.652344 4.11719 0.652344 5.00781 1.61719L12.875 9.41016L20.668 1.61719C21.5586 0.652344 23.1172 0.652344 24.0078 1.61719C24.9727 2.50781 24.9727 4.06641 24.0078 4.95703Z" fill="#D43836"/>
</svg>
