<svg width="73" height="72" viewBox="0 0 73 72" fill="none" xmlns="http://www.w3.org/2000/svg">
<path d="M72.25 36C72.25 55.9688 56.0781 72 36.25 72C16.2812 72 0.25 55.9688 0.25 36C0.25 16.1719 16.2812 0 36.25 0C56.0781 0 72.25 16.1719 72.25 36ZM26.6875 20.8125C25.5625 21.375 25 22.5 25 23.625V48.375C25 49.6406 25.5625 50.7656 26.6875 51.3281C27.6719 52.0312 29.0781 51.8906 30.0625 51.3281L50.3125 38.9531C51.2969 38.25 52 37.2656 52 36C52 34.875 51.2969 33.75 50.3125 33.1875L30.0625 20.8125C29.0781 20.1094 27.6719 20.1094 26.6875 20.6719V20.8125Z" fill="#378089"/>
</svg>
