<svg width="24" height="24" viewBox="0 0 24 24" fill="none" xmlns="http://www.w3.org/2000/svg">
<path d="M12.375 0.375C18.75 0.375 24 5.625 24 12C24 18.4219 18.75 23.625 12.375 23.625C5.95312 23.625 0.75 18.4219 0.75 12C0.75 5.625 5.95312 0.375 12.375 0.375ZM17.0625 17.4844C17.4375 17.4844 17.7656 17.2031 17.7656 16.7812C17.7656 16.3594 17.625 16.1719 17.3438 15.9844C13.9688 14.0156 10.0781 13.9219 6.23438 14.7656C5.85938 14.8594 5.57812 15.0938 5.57812 15.5625C5.57812 15.9375 5.85938 16.3125 6.32812 16.3125C6.46875 16.3125 6.70312 16.2188 6.89062 16.1719C10.2656 15.5156 13.6406 15.5625 16.5938 17.3438C16.7344 17.4375 16.875 17.4844 17.0625 17.4844ZM18.3281 14.4375C18.8438 14.4375 19.2188 14.0156 19.2656 13.5C19.2656 13.125 19.0781 12.7969 18.7031 12.6094C16.4062 11.2031 13.4531 10.4531 10.4062 10.4531C8.48438 10.4531 7.125 10.7344 5.8125 11.1094C5.34375 11.25 5.10938 11.5781 5.10938 12.0469C5.10938 12.5625 5.53125 12.9844 6 12.9844C6.23438 12.9844 6.32812 12.8906 6.5625 12.8438C10.4531 11.8125 14.8125 12.5156 17.7656 14.25C17.9062 14.2969 18.0938 14.4375 18.3281 14.4375ZM19.7812 10.875C20.3438 10.875 20.8594 10.4062 20.8594 9.75C20.8594 9.1875 20.625 8.90625 20.25 8.71875C17.6719 7.17188 14.0625 6.46875 10.6406 6.46875C8.625 6.46875 6.79688 6.70312 5.15625 7.17188C4.73438 7.3125 4.3125 7.64062 4.3125 8.29688C4.3125 8.90625 4.78125 9.42188 5.39062 9.42188C5.625 9.42188 5.85938 9.32812 6 9.28125C9.89062 8.20312 15.8438 8.67188 19.1719 10.6875C19.4062 10.7812 19.5469 10.875 19.7812 10.875Z" fill="#1BD760"/>
</svg>
