<svg width="126" height="126" viewBox="0 0 126 126" fill="none" xmlns="http://www.w3.org/2000/svg">
<path d="M46.2656 36.4219C47.9883 35.1914 50.4492 35.1914 52.1719 36.4219L87.6094 58.0781C89.332 59.0625 90.5625 61.0312 90.5625 63C90.5625 65.2148 89.332 67.1836 87.6094 68.168L52.1719 89.8242C50.4492 90.8086 47.9883 91.0547 46.2656 89.8242C44.2969 88.8398 43.3125 86.8711 43.3125 84.6562V41.3438C43.3125 39.375 44.2969 37.4062 46.2656 36.4219ZM126 63C126 97.9453 97.6992 126 63 126C28.0547 126 0 97.9453 0 63C0 28.3008 28.0547 0 63 0C97.6992 0 126 28.3008 126 63ZM63 5.8125C34.6992 5.8125 5.8125 34.9453 5.8125 63C5.8125 91.3008 34.6992 120.188 63 120.188C91.0547 120.188 120.188 91.3008 120.188 63C120.188 34.9453 91.0547 5.8125 63 5.8125Z" fill="white"/>
</svg>
