<svg width="30" height="21" viewBox="0 0 30 21" fill="white" xmlns="http://www.w3.org/2000/svg" data-di-rand="1723458967045"><path fill-rule="evenodd" clip-rule="evenodd" d="M4.01387 0.611666C6.27893 8.72279e-06 15.3036 0 15.3036 0C15.3036 0 24.3461 2.96497e-05 26.6111 0.648754C27.8417 0.982385 28.8225 2.00166 29.1435 3.28057C29.7678 5.6345 29.7499 10.5278 29.7499 10.5278C29.7499 10.5278 29.7499 15.4026 29.1435 17.738C28.8225 19.0355 27.8417 20.0362 26.6111 20.3884C24.3461 21 15.3036 21 15.3036 21C15.3036 21 6.29677 21 4.01387 20.3698C2.78325 20.0177 1.80244 18.9984 1.46357 17.7195C0.875013 15.4026 0.875 10.5093 0.875 10.5093C0.875 10.5093 0.875013 5.6345 1.46357 3.28057C1.80244 2.00166 2.80108 0.963826 4.01387 0.611666ZM12.6875 15.7501L20.5625 10.5109L12.6875 5.25008V15.7501Z" fill="white"></path></svg>