<svg width="24" height="24" viewBox="0 0 24 24" fill="none" xmlns="http://www.w3.org/2000/svg" class="hidden w-6 h-6 [&amp;_path]:fill-black group-hover:block " data-di-res-id="c80274dc-5a1a57bf" data-di-rand="1731943212683"><path fill-rule="evenodd" clip-rule="evenodd" d="M1.3892 4.49393C1.14376 4.68327 1 4.97573 1 5.28571V19C1 19.3812 1.21675 19.7293 1.55887 19.8974C1.8998 20.065 2.30614 20.0249 2.60767 19.7942L2.61338 19.7899C2.62031 19.7848 2.63321 19.7754 2.6518 19.7623C2.68902 19.7361 2.74876 19.6953 2.82888 19.6448C2.98965 19.5433 3.22937 19.4043 3.53116 19.2646C4.14067 18.9825 4.96676 18.7143 5.88889 18.7143C6.86183 18.7143 8.28158 19.0049 9.52874 19.3256C10.1371 19.4821 10.679 19.6388 11.0687 19.7564C11.2632 19.8152 11.4192 19.864 11.5258 19.8978C11.5791 19.9148 11.62 19.9279 11.6472 19.9368L11.6775 19.9466L11.6845 19.9489L11.686 19.9494C11.7688 19.9768 11.8537 19.9929 11.9387 19.9981C11.9712 20.0001 12.0037 20.0005 12.036 19.9993C12.1295 19.996 12.2231 19.9795 12.314 19.9494L12.3155 19.9489L12.3225 19.9466L12.3528 19.9368C12.38 19.9279 12.4209 19.9148 12.4742 19.8978C12.5808 19.864 12.7368 19.8152 12.9313 19.7564C13.321 19.6388 13.8629 19.4821 14.4713 19.3256C15.7184 19.0049 17.1382 18.7143 18.1111 18.7143C19.0332 18.7143 19.8593 18.9825 20.4688 19.2646C20.7706 19.4043 21.0104 19.5433 21.1711 19.6448C21.2512 19.6953 21.311 19.7361 21.3482 19.7623C21.3668 19.7754 21.3797 19.7848 21.3866 19.7899L21.3923 19.7942C21.6939 20.0249 22.1002 20.065 22.4411 19.8974C22.7833 19.7293 23 19.3812 23 19V5.28571C23 4.97573 22.8562 4.68327 22.6108 4.49393L22.6085 4.49215L22.6056 4.48991L22.5978 4.48402L22.5749 4.4669C22.4452 4.37112 21.9968 4.05376 21.3089 3.73535C20.5296 3.37462 19.4112 3 18.1111 3C16.8618 3 15.226 3.3522 13.9732 3.67436C13.3316 3.83934 12.7623 4.00404 12.3534 4.12749C12.2354 4.16309 12.1176 4.19918 12 4.23597C11.8824 4.19918 11.7646 4.16309 11.6466 4.12749C11.2377 4.00404 10.6684 3.83934 10.0268 3.67436C8.77397 3.3522 7.13817 3 5.88889 3C4.5888 3 3.47044 3.37462 2.69107 3.73535C2.00316 4.05376 1.55482 4.37112 1.42514 4.4669L1.4022 4.48402L1.39445 4.48991L1.39151 4.49215L1.3892 4.49393ZM11 6H13V17.6925H11V6Z" fill="black"></path></svg>