<svg xmlns="http://www.w3.org/2000/svg" width="24" height="24" fill="none" viewBox="0 0 24 24" class="w-6 h-6 [&amp;_path]:fill-black group-hover:hidden " data-di-res-id="54464982-eb86014d" data-di-rand="1731566797233"><path fill="#273F3F" fill-rule="evenodd" d="M10.027 17.389c.35.09.68.18.973.263V6.022c-.383-.115-.898-.263-1.471-.41C8.282 5.29 6.862 5 5.889 5c-.922 0-1.748.268-2.358.55-.208.097-.387.193-.531.277v11.487c.754-.313 1.752-.6 2.889-.6 1.25 0 2.885.353 4.138.675zM12 4.236l-.353-.109c-.41-.123-.979-.288-1.62-.453C8.774 3.352 7.138 3 5.889 3c-1.3 0-2.419.375-3.198.735-.688.319-1.136.636-1.266.732l-.023.017-.008.006-.002.002-.003.002c-.245.19-.389.482-.389.792V19c0 .381.217.73.559.897.34.168.747.128 1.049-.103l.005-.004.039-.028c.037-.026.097-.067.177-.117.16-.102.4-.24.702-.38.61-.282 1.436-.55 2.358-.55.973 0 2.393.29 3.64.61.608.157 1.15.314 1.54.431l.457.142.121.039.03.01.008.002h.001c.083.028.168.044.253.05.032.001.065.002.097 0 .094-.003.187-.02.278-.05h.002l.006-.002.03-.01.122-.04c.107-.033.263-.082.457-.14.39-.118.932-.275 1.54-.431 1.247-.321 2.667-.612 3.64-.612.922 0 1.748.269 2.358.55.302.14.541.28.702.38.08.051.14.092.177.118l.039.028.005.004c.302.23.708.271 1.05.103.341-.168.558-.516.558-.897V5.286c0-.31-.144-.603-.39-.792l-.002-.002-.002-.002-.008-.006-.023-.017c-.13-.096-.578-.413-1.266-.732C20.529 3.375 19.41 3 18.11 3c-1.25 0-2.885.352-4.138.674-.641.165-1.21.33-1.62.453L12 4.236zm1 1.785v11.631c.293-.083.622-.173.973-.263 1.253-.322 2.889-.675 4.138-.675 1.137 0 2.135.287 2.889.6V5.827c-.144-.084-.323-.18-.531-.277-.61-.282-1.436-.55-2.358-.55-.973 0-2.393.29-3.64.611-.573.148-1.088.296-1.471.41z" clip-rule="evenodd"></path></svg>