<svg width="24" height="24" viewBox="0 0 24 24" fill="none" xmlns="http://www.w3.org/2000/svg">
<path fill-rule="evenodd" clip-rule="evenodd" d="M9.43476 3.3406L9.43189 3.34536L0.961893 17.4854C0.420732 18.4223 0.417549 19.5589 0.945409 20.485C1.47327 21.411 2.45289 21.9875 3.51877 21.9992L20.4698 21.9992C21.5466 21.9875 22.5263 21.411 23.0541 20.485C23.582 19.5589 23.5788 18.4223 23.0457 17.4992L14.5676 3.34536C14.0209 2.44402 13.0484 1.89648 11.9998 1.89648C10.9511 1.89648 9.97861 2.44402 9.43476 3.3406ZM2.68296 19.4946C2.50701 19.1859 2.50807 18.807 2.68575 18.4993L11.146 4.37589C11.3275 4.0782 11.651 3.89648 11.9998 3.89648C12.3493 3.89648 12.6735 4.079 12.8548 4.37786L21.3219 18.5131C21.4914 18.807 21.4925 19.1859 21.3166 19.4946C21.1406 19.8032 20.8141 19.9954 20.4588 19.9993L3.52976 19.9992C3.18546 19.9954 2.85892 19.8032 2.68296 19.4946ZM11.9998 17.9992C12.552 17.9992 12.9998 17.5515 12.9998 16.9992C12.9998 16.4469 12.552 15.9992 11.9998 15.9992C11.4475 15.9992 10.9998 16.4469 10.9998 16.9992C10.9998 17.5515 11.4475 17.9992 11.9998 17.9992ZM11.9998 7.99923C11.4475 7.99923 10.9998 8.44694 10.9998 8.99923V12.9992C10.9998 13.5515 11.4475 13.9992 11.9998 13.9992C12.552 13.9992 12.9998 13.5515 12.9998 12.9992V8.99923C12.9998 8.44694 12.552 7.99923 11.9998 7.99923Z" fill="#B22626"/>
</svg>
