<svg width="32" height="33" viewBox="0 0 32 33" fill="none" xmlns="http://www.w3.org/2000/svg">
<rect y="0.5" width="32" height="32" rx="16" fill="#378189"/>
<path d="M21.9062 22.9375C22.3633 22.9375 22.75 23.3242 22.75 23.7812C22.75 24.2734 22.3633 24.625 21.9062 24.625H10.0938C9.60156 24.625 9.25 24.2734 9.25 23.7812C9.25 23.2891 9.60156 22.9375 10.0938 22.9375H21.9062ZM19.8672 15.0625C20.1836 14.7109 20.7109 14.7109 21.0625 15.0273C21.4141 15.3438 21.4141 15.8711 21.0977 16.2227L16.5977 21.0039C16.2812 21.3555 15.6836 21.3555 15.3672 21.0039L10.8672 16.2227C10.5508 15.8711 10.5508 15.3438 10.9023 15.0273C11.0781 14.8867 11.2891 14.8164 11.5 14.8164C11.7109 14.8164 11.9219 14.8867 12.0977 15.0625L15.1562 18.2969V9.75391C15.1562 9.26172 15.5078 8.875 16 8.875C16.457 8.875 16.8438 9.26172 16.8438 9.75391V18.2969L19.8672 15.0625Z" fill="white"/>
</svg>
