<svg width="22" height="22" viewBox="0 0 22 22" fill="none" xmlns="http://www.w3.org/2000/svg">
<path fill-rule="evenodd" clip-rule="evenodd" d="M4.99995 15.2863H3.28566C1.8655 15.2863 0.714233 14.135 0.714233 12.7148V3.28627C0.714233 1.86611 1.8655 0.714844 3.28566 0.714844H12.7142C14.1344 0.714844 15.2857 1.86611 15.2857 3.28627V5.00056H18.8428C20.192 5.00056 21.2857 6.09426 21.2857 7.44342V18.8434C21.2857 20.1926 20.192 21.2863 18.8428 21.2863H7.44281C6.09365 21.2863 4.99995 20.1926 4.99995 18.8434V15.2863ZM13.5714 3.28627V5.00056H7.44281C6.09365 5.00056 4.99995 6.09426 4.99995 7.44342V13.572H3.28566C2.81227 13.572 2.42852 13.1882 2.42852 12.7148L2.42852 3.28627C2.42852 2.81289 2.81227 2.42913 3.28566 2.42913L12.7142 2.42913C13.1876 2.42913 13.5714 2.81289 13.5714 3.28627ZM7.44281 6.62913C6.99309 6.62913 6.62852 6.9937 6.62852 7.44342V18.8434C6.62852 19.2931 6.99309 19.6577 7.44281 19.6577H18.8428C19.2925 19.6577 19.6571 19.2931 19.6571 18.8434V7.44342C19.6571 6.9937 19.2925 6.62913 18.8428 6.62913H7.44281Z" fill="#2A3C3C"/>
</svg>