<svg width="16" height="17" viewBox="0 0 16 17" fill="none" xmlns="http://www.w3.org/2000/svg">
<path fill-rule="evenodd" clip-rule="evenodd" d="M2.86128 13.6381C3.12163 13.8984 3.54374 13.8984 3.80409 13.6381L7.99935 9.4428L12.1946 13.6381C12.455 13.8984 12.8771 13.8984 13.1374 13.6381C13.3978 13.3777 13.3978 12.9556 13.1374 12.6953L8.94216 8.49999L13.1374 4.30473C13.3978 4.04438 13.3978 3.62227 13.1374 3.36192C12.8771 3.10157 12.455 3.10157 12.1946 3.36192L7.99935 7.55718L3.80409 3.36192C3.54374 3.10157 3.12163 3.10157 2.86128 3.36192C2.60093 3.62227 2.60093 4.04438 2.86128 4.30473L7.05654 8.49999L2.86128 12.6953C2.60093 12.9556 2.60093 13.3777 2.86128 13.6381Z" fill="#B22626"/>
</svg>
