<svg width="24" height="24" viewBox="0 0 24 24" fill="none" xmlns="http://www.w3.org/2000/svg">
<path fill-rule="evenodd" clip-rule="evenodd" d="M6.14142 2.60749L5.98055 1.80374L5.98037 1.80281C5.88647 1.33594 5.47631 1 5 1H4.18032H1C0.447715 1 0 1.44772 0 2C0 2.55228 0.447715 3 1 3H4.18032L4.85933 6.39251L5.01195 7.15508C5.01638 7.18353 5.02201 7.21159 5.02879 7.23921L5.18106 8L6.69945 15.5863C6.98227 17.0102 8.24624 18.0277 9.69916 17.9998L19.4 18C20.8338 18.0277 22.0977 17.0102 22.3808 15.5848L23.9823 7.18733C24.0998 6.57104 23.6274 6 23 6H6.82043L6.14142 2.60749ZM8.66055 15.1937L7.22073 8H21.7913L20.4181 15.2007C20.32 15.6805 19.8939 16.0092 19.4386 16.0004L19.4193 16H19.4L9.6992 15.9998H9.68002L9.66084 16.0002C9.17593 16.0095 8.75509 15.6697 8.66113 15.1966L8.66055 15.1937ZM9 24C7.89543 24 7 23.1046 7 22C7 20.8954 7.89543 20 9 20C10.1046 20 11 20.8954 11 22C11 23.1046 10.1046 24 9 24ZM20 24C18.8954 24 18 23.1046 18 22C18 20.8954 18.8954 20 20 20C21.1046 20 22 20.8954 22 22C22 23.1046 21.1046 24 20 24Z" fill="#69787B"/>
</svg>
