<svg width="22" height="21" viewBox="0 0 22 21" fill="none" xmlns="http://www.w3.org/2000/svg">
<path d="M0.70703 0.615234C0.830077 0.369141 0.99414 0.205078 1.24023 0.0820312C1.36328 0.0410156 1.48633 -2.12581e-08 1.60937 -2.66366e-08L7.51562 -2.84807e-07C8.08984 -3.09907e-07 8.5 0.451172 8.5 0.984375C8.5 1.55859 8.08984 1.96875 7.51562 1.96875L3.98828 1.96875L9.52539 7.50586C9.93555 7.91602 9.93555 8.53125 9.52539 8.90039C9.15625 9.31055 8.54102 9.31055 8.13086 8.90039L2.59375 3.36328L2.59375 6.89062C2.59375 7.46484 2.18359 7.875 1.60937 7.875C1.07617 7.875 0.624999 7.46484 0.624999 6.89063L0.624999 0.984375C0.624999 0.861328 0.666015 0.738281 0.70703 0.615234ZM21.584 20.4258C21.4609 20.6719 21.2559 20.8359 21.0508 20.959C20.9277 21 20.8047 21 20.6406 21L14.7344 21C14.2012 21 13.75 20.5898 13.75 20.0156C13.75 19.4824 14.2012 19.0312 14.7344 19.0312L18.3027 19.0312L12.7656 13.4941C12.3555 13.125 12.3555 12.5098 12.7656 12.1406C13.1348 11.7305 13.75 11.7305 14.1191 12.1406L19.6562 17.6777L19.6562 14.1094C19.6562 13.5762 20.1074 13.125 20.6406 13.125C21.2148 13.125 21.625 13.5762 21.625 14.1504L21.625 20.0156C21.625 20.1797 21.625 20.3027 21.584 20.4258Z" fill="white"/>
</svg>
