<?xml version="1.0" encoding="UTF-8"?>
<svg id="Layer_1" xmlns="http://www.w3.org/2000/svg" viewBox="0 0 435.3 150.36">
  <defs>
    <style>
      .cls-1 {
        fill: #fff;
      }
    </style>
  </defs>
  <path class="cls-1" d="M407.83,7.46l-1.1,1.56c19.51,17.64,28.92,46.89,5.95,64.79,0,33.47-25.92,54.51-52.75,54.51s-56.26-18.24-56.26-52.78c0-18.69,8.6-32.63,15.65-39.69,8.91-8.92,20.76-13.82,33.37-13.82s24.44,4.9,33.35,13.82c8.24,8.22,12.53,19.16,12.09,30.81h0c9.06-3.76,15.45-12.7,15.45-23.12,0-5.21-1.6-10.04-4.31-14.05h0c-2.22-3.28-4.79-6.36-7.64-9.22C388.55,7.2,371.17,0,352.69,0s-35.88,7.2-48.95,20.26c-14.3,14.3-22.17,33.3-22.17,53.52,0,47.17,34.86,76.58,78.36,76.58,45.77,0,75.38-36.92,75.38-77.3,0-22.63-4.74-45.03-27.47-65.6h0ZM389.11,67.12h.01c-.01-8.95-3.5-17.34-9.81-23.66-14.26-14.27-37.48-14.27-51.74,0-15.62,15.61-15.62,41.02,0,56.64,7.98,7.98,18.59,12.55,29.89,12.84l.29-10.92c-8.49-.22-16.47-3.65-22.47-9.65-11.34-11.36-11.34-29.83,0-41.19,10.03-10.01,26.3-10.01,36.3,0,1.56,1.55,2.85,3.28,3.87,5.14h-.01c2.8,5.28,7.74,9.27,13.67,10.8h0Z"/>
  <path class="cls-1" d="M98.79,51.44c-6.59,0-10.07,5.57-10.07,5.57v-.63c0-2.18-1.68-4.07-3.76-4.07h-2.94v25.49c0,3.94,1.24,6.51,5.05,6.51h2l.02-18.9c0-4.7,3.03-8.41,7.73-8.41,4.14,0,6.12,2.17,6.24,7.17v13.88c.06,3.76,1.33,6.2,5,6.21h2.06v-21.94c-.01-7.18-4.4-10.88-11.32-10.88h0Z"/>
  <path class="cls-1" d="M182.72,46.63c0-3.95-1.24-6.51-5.05-6.51h-2.01v16.32c-2.26-3.41-6.74-5.01-10.76-5.01-6.97,0-13.85,5.07-13.85,16.63,0,9.58,4.89,17.07,14.97,17.07,5.84,0,8.66-2.87,9.83-5.1h0c.45,2.61,1.83,4.22,4.8,4.24h2.05v-37.64h.02ZM166.95,79.56c-6.1,0-8.83-5.44-8.83-10.94s2.35-11.63,8.95-11.63c5.44,0,8.84,4.21,8.84,11.26,0,5.56-2.65,11.31-8.97,11.31h.01Z"/>
  <path class="cls-1" d="M204,51.44v-.02h-5.22c-3.02,0-5.48,2.45-5.48,5.48v.13h10.69c2.75,0,6.09.87,6.09,4.31,0,4.13-4.23,3.86-9.57,4.46-5.84.73-12.33,2.03-12.33,9.99,0,6.25,5.19,9.34,10.94,9.34,3.75,0,8.23-1.17,11.02-3.85.65,1.86,2.02,2.97,4.48,2.98h2.06v-23.55c0-6.71-6.5-9.25-12.7-9.28h.02ZM209.65,72.75c0,3.98-4.2,6.71-7.94,6.71-2.47,0-6.11-.8-6.48-3.98-.4-3.68,2.73-4.81,5.76-5.31,3.09-.56,6.49-.5,8.66-1.91v4.49h0Z"/>
  <path class="cls-1" d="M36.64,48.19l-.02.02h0l.02-.02h0ZM40.57,64.71h-12.88c-5.58,0-5.04,4.65-5.04,5.47h11.35c-1.37,6.18-6.52,9.21-12.5,9.21-8.81,0-14.3-7.66-14.3-15.55s5.49-15.67,14.3-15.67c2.26,0,5.31.52,7.1,1.57h0c.93.5,1.97.74,3.1.74,1.97,0,3.75-.88,4.94-2.27-3.25-3.93-9.33-5.93-15.13-5.93-12.34.01-21.51,9.16-21.51,21.56s9.17,21.53,21.49,21.53c5.68,0,9.73-1.62,12.58-3.92.68,1.79,2.06,2.86,4.5,2.86h2v-19.6h0Z"/>
  <path class="cls-1" d="M61.72,51.54c-9.52,0-15.46,7.79-15.46,16.88,0,9.83,5.94,16.81,15.95,16.81,5.1,0,11.71-2.34,14.23-6.35l-.02-.03c-.77-1.41-2.26-2.35-3.97-2.35s-2.47.8-2.94,1.07c-1.65,1.31-5.02,2.1-7.3,2.1-5.87,0-8.91-4.46-8.91-9.46h23.5c1.17-9.58-5.03-18.67-15.09-18.67h0ZM61.72,57.1c4.45,0,7.38,3.51,7.95,7.61h-16.29c.53-4.34,3.75-7.61,8.34-7.61h0Z"/>
  <path class="cls-1" d="M130.67,51.54c-9.53,0-15.46,7.79-15.46,16.88,0,9.83,5.94,16.81,15.95,16.81,5.1,0,11.71-2.34,14.23-6.35l-.03-.03c-.77-1.41-2.26-2.35-3.97-2.35s-2.47.8-2.94,1.07c-1.63,1.31-5.02,2.1-7.29,2.1-5.88,0-8.91-4.46-8.91-9.46h23.5c1.17-9.58-5.03-18.67-15.09-18.67h0ZM130.67,57.1c4.44,0,7.38,3.51,7.95,7.61h-16.29c.52-4.34,3.76-7.61,8.34-7.61h0Z"/>
  <path class="cls-1" d="M231.14,51.43v-4.73c-.03-3.64-2.99-6.57-6.63-6.57h-.41l-.02,37.68c0,3.94,1.24,6.51,5.05,6.51h1.99v-27.28h4.02c3,0,5.43-2.44,5.43-5.44v-.17h-9.44.01ZM231.14,46.64v.06h0v-.06h0Z"/>
  <path class="cls-1" d="M255.49,51.44v-.02h-5.22c-3.01,0-5.47,2.45-5.47,5.48v.13h10.69c2.76,0,6.08.87,6.08,4.31,0,4.13-4.22,3.86-9.55,4.46-5.85.73-12.33,2.03-12.33,9.99,0,6.25,5.19,9.34,10.94,9.34,3.75,0,8.23-1.17,11.03-3.85.65,1.86,2,2.97,4.49,2.98h2.05v-23.55c0-6.71-6.49-9.25-12.7-9.28h0ZM261.13,72.75c0,3.98-4.19,6.71-7.94,6.71-2.46,0-6.11-.8-6.47-3.98-.41-3.68,2.73-4.81,5.75-5.31,3.1-.56,6.5-.5,8.66-1.91v4.49h0Z"/>
</svg>