<svg xmlns="http://www.w3.org/2000/svg" width="24" height="25" fill="none" viewBox="0 0 24 25" data-di-rand="1735276336941"><path fill="#273F3F" fill-rule="evenodd" d="M1 12.5c0 6.076 4.925 11 11 11s11-4.924 11-11c0-6.074-4.925-11-11-11S1 6.427 1 12.5zm20 0c0 4.971-4.03 9-9 9s-9-4.029-9-9c0-4.97 4.03-9 9-9s9 4.03 9 9z" clip-rule="evenodd"></path><path fill="#273F3F" fill-rule="evenodd" d="M10.496 10.376c0-.572.416-1.288 1.442-1.288.504 0 .904.154 1.162.371.243.206.402.5.402.917 0 .642-.297.937-.889 1.403l-.115.09c-.557.43-1.46 1.13-1.46 2.45 0 .498.403.9.9.9s.9-.402.9-.9c0-.4.192-.577.889-1.126.64-.504 1.575-1.271 1.575-2.817 0-.945-.392-1.744-1.04-2.292-.635-.536-1.468-.796-2.324-.796-2.178 0-3.242 1.688-3.242 3.088 0 .497.403.9.9.9s.9-.403.9-.9zm2.49 6.951c0 .545-.442.986-.986.986-.545 0-.986-.441-.986-.986 0-.544.441-.986.986-.986.544 0 .986.442.986.986z" clip-rule="evenodd"></path></svg>