<svg width="96" height="30" viewBox="0 0 96 30" fill="white" xmlns="http://www.w3.org/2000/svg" data-di-rand="1726573645127"><path d="M24.489 9.832V6.136c0-.68-.551-1.233-1.23-1.233H9.72v-.367c0-.747.512-1.396 1.24-1.57L23.128.06c.282-.07.583-.089.86-.002.407.129.768.39 1.22.641l3.23 1.905c.167.097.325.214.446.367.339.432.527.895.527 1.524v15.951a2.314 2.314 0 0 1-1.157 1.993l-3.766 2.174V9.832zM4.798 19.697v3.696c0 .68.552 1.233 1.23 1.233h13.538v.367c0 .747-.512 1.396-1.239 1.571L6.158 29.47c-.282.07-.583.09-.86.002-.407-.128-.767-.389-1.22-.64l-3.23-1.905a1.555 1.555 0 0 1-.446-.367 2.327 2.327 0 0 1-.527-1.525V9.083a2.314 2.314 0 0 1 1.157-1.994l3.766-2.172v14.78zM40.486 7.378h-3.69V22.13h3.69V7.378zM56.97 8.682c-1.414-.95-2.984-1.305-5.678-1.305h-7.448v14.751h7.36c2.472 0 4.241-.441 5.7-1.459 1.945-1.326 3.071-3.561 3.071-6.038 0-2.453-1.126-4.665-3.005-5.95zm-5.723 10.463h-3.711v-8.782h3.71c3.008 0 4.685 1.593 4.685 4.38 0 2.81-1.677 4.402-4.684 4.402zM75.09 14.235c1.303-.819 1.9-1.813 1.9-3.163 0-1.504-.796-2.832-1.99-3.295-.862-.355-1.348-.4-3.866-.4h-8.773v14.754h8.882c2.299 0 3.183-.113 4.2-.576 1.349-.598 2.231-2.035 2.231-3.628 0-1.68-.883-2.962-2.585-3.692zm-9.037-3.938h4.994c1.414 0 1.965.398 1.965 1.46 0 1.062-.551 1.46-1.965 1.46h-4.994v-2.92zm6.849 8.648c-.42.2-.818.265-1.857.265h-4.994v-3.384h4.994c1.04 0 1.438.045 1.857.266.486.222.795.775.795 1.414 0 .664-.31 1.218-.795 1.439zM93.563 14.035c-.995-.51-2.012-.752-3.91-.93l-3.582-.373c-1.568-.155-2.143-.532-2.143-1.372 0-1.105 1.304-1.769 3.49-1.769 1.084 0 1.901.154 2.585.51.665.353.973.795 1.238 1.68h3.89c-.287-1.747-.796-2.676-1.945-3.473-1.325-.907-3.424-1.437-5.745-1.437-4.595 0-7.424 1.88-7.424 4.954 0 2.344 1.745 3.804 4.972 4.136l4.153.421c1.724.176 2.453.662 2.453 1.638 0 1.216-1.392 1.924-3.802 1.924-1.523 0-2.54-.265-3.359-.886-.594-.464-.86-.972-.971-1.947h-3.867c.134 1.947.51 2.921 1.548 3.805 1.349 1.172 3.47 1.747 6.475 1.747 2.384 0 4.043-.285 5.458-.972 1.657-.795 2.674-2.345 2.674-4.07 0-1.552-.84-2.922-2.188-3.586z" fill="#fff"></path></svg>