<svg xmlns="http://www.w3.org/2000/svg" width="24" height="24" fill="none" viewBox="0 0 24 24" class="w-6 h-6 [&amp;_path]:fill-black group-hover:hidden " data-di-res-id="c991713b-86c3f474" data-di-rand="1731566797234"><path fill="#273F3F" fill-rule="evenodd" d="M4 2h16c1.652 0 3 1.348 3 3v14c0 1.652-1.348 3-3 3H4c-1.652 0-3-1.348-3-3V5c0-1.652 1.348-3 3-3zm.629 2L12 9.733 19.371 4H4.63zM21 5.267l-8.386 6.522c-.361.281-.867.281-1.228 0L3 5.267V19c0 .548.452 1 1 1h16c.548 0 1-.452 1-1V5.267z" clip-rule="evenodd"></path></svg>