<svg width="24" height="24" viewBox="0 0 24 24" fill="none" xmlns="http://www.w3.org/2000/svg" class="hidden w-6 h-6 [&amp;_path]:fill-black group-hover:block " data-di-res-id="c80274dc-79442b4" data-di-rand="1731943212683"><path fill-rule="evenodd" clip-rule="evenodd" d="M20 2H4C2.34772 2 1 3.34772 1 5V19C1 20.6523 2.34772 22 4 22H20C21.6523 22 23 20.6523 23 19V5C23 3.34772 21.6523 2 20 2ZM19.7894 5.38606C19.4503 4.95011 18.822 4.87158 18.3861 5.21065L12 9.73314L5.61394 5.21065C5.17799 4.87158 4.54972 4.95011 4.21065 5.38606C3.87158 5.82201 3.95011 6.45028 4.38606 6.78935L11.3861 11.7894C11.7472 12.0702 12.2528 12.0702 12.6139 11.7894L19.6139 6.78935C20.0499 6.45028 20.1284 5.82201 19.7894 5.38606Z" fill="black"></path></svg>