<svg xmlns="http://www.w3.org/2000/svg" viewBox="0 0 16 16" fill="none" data-di-rand="1735276336942"><path d="M7.367 3.663c0-.279.226-.505.506-.505a3.116 3.116 0 0 1 3.115 3.116.505.505 0 1 1-1.01 0 2.105 2.105 0 0 0-2.105-2.106.505.505 0 0 1-.506-.505z" fill="#2A3C3C"></path><path fill-rule="evenodd" clip-rule="evenodd" d="M2.61 6.105a5.39 5.39 0 1 1 8.187 4.607c-.079.048-.103.113-.103.152v1.389c0 .557-.374 1.027-.885 1.174v.636c0 .651-.527 1.18-1.179 1.18H7.41a1.179 1.179 0 0 1-1.18-1.18v-.625a1.222 1.222 0 0 1-.926-1.185v-1.389c0-.04-.025-.104-.103-.152a5.387 5.387 0 0 1-2.592-4.607zm5.389-4.294a4.295 4.295 0 0 0-2.23 7.966c.36.219.63.615.63 1.087v1.389c0 .07.056.126.126.126h2.948c.07 0 .126-.057.126-.126v-1.389c0-.472.27-.868.629-1.087A4.295 4.295 0 0 0 7.999 1.81zM7.24 13.474v.59c0 .092.075.168.168.168H8.63a.168.168 0 0 0 .169-.169v-.59H7.24z" fill="#2A3C3C"></path></svg>