<svg width="22" height="23" viewBox="0 0 22 23" fill="white" xmlns="http://www.w3.org/2000/svg" data-di-rand="1723458967045"><path fill-rule="evenodd" clip-rule="evenodd" d="M20.4221 0.881348H2.21023C1.33817 0.881348 0.631348 1.56659 0.631348 2.41236V20.7182C0.631348 21.5641 1.33841 22.2499 2.21023 22.2499H20.4221C21.294 22.2499 22 21.5636 22 20.7182V2.41236C22 1.56684 21.294 0.881348 20.4221 0.881348ZM7.10942 18.7683H3.88076V9.12061H7.10942V18.7683ZM5.47399 7.80273H5.4957C6.62059 7.80273 7.32105 7.06249 7.32105 6.1353C7.29959 5.18943 6.62034 4.46926 5.51607 4.46926C4.4119 4.46926 3.68943 5.18963 3.68943 6.1353C3.68943 7.06229 4.39128 7.80273 5.47399 7.80273ZM18.7478 18.7683H15.5202V13.6065C15.5202 12.3094 15.0526 11.4244 13.8854 11.4244C12.9924 11.4244 12.4624 12.0215 12.2296 12.5979C12.1434 12.8038 12.122 13.0918 12.122 13.3793V18.7681H8.895C8.895 18.7681 8.93723 10.0253 8.895 9.1205H12.1225V10.4883C12.551 9.83103 13.3166 8.89351 15.0306 8.89351C17.1549 8.89351 18.7478 10.2716 18.7478 13.2363V18.7683ZM12.1624 10.4992C12.146 10.5218 12.1296 10.5451 12.1178 10.5644H12.1624V10.4992Z" fill="white"></path></svg>