<svg width="21" height="20" viewBox="0 0 21 20" fill="none" xmlns="http://www.w3.org/2000/svg">
<path fill-rule="evenodd" clip-rule="evenodd" d="M18.7732 0H1.72775C0.911547 0 0.25 0.641356 0.25 1.43295V18.5664C0.25 19.358 0.91178 19.9999 1.72775 19.9999H18.7732C19.5892 19.9999 20.25 19.3576 20.25 18.5664V1.43295C20.25 0.641588 19.5892 0 18.7732 0ZM6.31343 16.7413H3.29157V7.71157H6.31343V16.7413ZM4.78248 6.47796H4.8028C5.85564 6.47796 6.51124 5.78513 6.51124 4.91733C6.49115 4.03204 5.85541 3.35799 4.82187 3.35799C3.78842 3.35799 3.11222 4.03222 3.11222 4.91733C3.11222 5.78494 3.76912 6.47796 4.78248 6.47796ZM17.2063 16.7413H14.1855V11.9101C14.1855 10.6961 13.7478 9.8678 12.6553 9.8678C11.8196 9.8678 11.3235 10.4266 11.1056 10.9661C11.0249 11.1588 11.0049 11.4283 11.0049 11.6975V16.7411H7.98457C7.98457 16.7411 8.0241 8.55831 7.98457 7.71143H11.0054V8.99158C11.4064 8.37645 12.123 7.49898 13.7272 7.49898C15.7155 7.49898 17.2063 8.7888 17.2063 11.5636V16.7413ZM11.0433 9.00205C11.0279 9.02335 11.0124 9.04525 11.0013 9.06345H11.0433V9.00205Z" fill="#0A66C2"/>
</svg>