<svg width="97" height="22" viewBox="0 0 97 22" fill="white" xmlns="http://www.w3.org/2000/svg" data-di-rand="1726573645129"><path d="M34.896 8.957h-2.018V5.111l-1.822 2.227h-.16L29.07 5.111v3.846h-1.961v-6.64h1.831l2.057 2.493 2.069-2.493h1.83v6.64z" fill="#fff"></path><path fill-rule="evenodd" clip-rule="evenodd" d="M43.99 5.633c0 .62-.144 1.19-.433 1.71-.288.52-.717.934-1.288 1.241-.57.308-1.264.46-2.083.46-.828 0-1.529-.16-2.101-.478-.573-.32-1-.74-1.278-1.26a3.483 3.483 0 0 1-.418-1.673c0-.597.139-1.155.415-1.674.276-.52.704-.937 1.278-1.256.575-.316 1.276-.475 2.104-.475.619 0 1.17.09 1.656.272.486.183.884.43 1.194.74.313.312.55.675.711 1.088.162.413.242.848.242 1.305zm-2.059 0c0-.25-.037-.477-.11-.682a1.476 1.476 0 0 0-.885-.892 2.025 2.025 0 0 0-.75-.127c-.541 0-.966.156-1.274.47-.31.312-.463.723-.463 1.231 0 .508.154.92.466 1.233.31.315.734.473 1.273.473.372 0 .686-.074.949-.219.259-.145.458-.346.594-.604.132-.257.2-.55.2-.883z" fill="#fff"></path><path d="M50.57 8.957H45.48v-6.64h2.022v5.05h3.067v1.59zM57.04 8.957h-5.05v-6.64h4.967V3.65H54.01v1.216h2.813v1.337H54.01v1.418h3.03v1.336z" fill="#fff"></path><path fill-rule="evenodd" clip-rule="evenodd" d="M64.636 8.46c-.276.144-.56.258-.85.344a5.35 5.35 0 0 1-.876.184c-.295.036-.6.055-.915.055a4.794 4.794 0 0 1-1.568-.24 3.379 3.379 0 0 1-1.203-.709 2.977 2.977 0 0 1-.762-1.09 3.606 3.606 0 0 1-.255-1.373c0-.572.1-1.07.3-1.5.2-.43.48-.787.839-1.072.36-.284.768-.495 1.226-.63.46-.136.944-.203 1.452-.203.76 0 1.622.168 2.584.503V4.49a7.116 7.116 0 0 0-.982-.51 2.957 2.957 0 0 0-1.142-.204c-.389 0-.755.076-1.09.23-.339.154-.612.371-.819.657a1.648 1.648 0 0 0-.308.996c0 .337.09.644.27.923.18.278.43.501.75.665.32.164.682.246 1.084.246.324 0 .633-.038.923-.116.29-.08.532-.165.731-.261.198-.097.401-.21.611-.34V8.46zM73.207 5.983c0 .568-.108 1.054-.321 1.454a2.557 2.557 0 0 1-.85.951c-.353.233-.733.401-1.139.504a4.909 4.909 0 0 1-2.876-.135 2.938 2.938 0 0 1-1.345-.978c-.361-.46-.542-1.058-.542-1.796V2.32h2.015v3.147c0 .438.064.799.192 1.085.128.286.305.496.53.629.227.131.496.199.804.199.296 0 .559-.065.787-.196.228-.132.407-.34.535-.623.127-.284.192-.645.192-1.083V2.319h2.02v3.664h-.002z" fill="#fff"></path><path d="M80.116 8.957H75.03v-6.64h2.02v5.05h3.067v1.59z" fill="#fff"></path><path fill-rule="evenodd" clip-rule="evenodd" d="M88.89 8.957h-2.067l-.546-1.345h-2.91l-.555 1.345h-2.068l2.96-6.64h2.232l2.954 6.64zm-3.078-2.5-.98-2.423-.99 2.423h1.97zM96.5 8.957h-2.168l-.526-1.18c-.194-.429-.369-.744-.523-.945-.154-.2-.306-.327-.452-.384a1.638 1.638 0 0 0-.568-.084h-.227v2.592h-2.02V2.319h3.435c.554 0 1.008.112 1.362.335.355.225.61.496.766.816.156.318.233.622.233.91 0 .335-.065.62-.196.85-.131.232-.269.401-.414.506a4.136 4.136 0 0 1-.487.3c.216.126.393.273.532.445.142.17.332.515.572 1.035l.68 1.441zm-2.743-4.54c0-.308-.102-.522-.306-.643-.202-.12-.532-.18-.99-.18h-.426v1.598h.435c.493 0 .83-.055 1.012-.16.183-.107.275-.312.275-.615zM19.356 2.314a9.295 9.295 0 0 1 2.817 6.672c0 5.174-4.229 9.369-9.447 9.369-5.22 0-9.449-4.195-9.449-9.369a9.297 9.297 0 0 1 2.818-6.672H.283v13.529c0 2.953 2.414 5.347 5.392 5.347h14.017c2.978 0 5.391-2.393 5.391-5.347V2.314h-5.727z" fill="#fff"></path><path fill-rule="evenodd" clip-rule="evenodd" d="M18.799 2.945c-3.35-3.321-8.78-3.321-12.129 0a8.455 8.455 0 0 0 0 12.026c3.35 3.32 8.78 3.32 12.129 0a8.455 8.455 0 0 0 0-12.026zm-4.974 9.816a1.107 1.107 0 0 1-1.551 0L9.012 9.528a.205.205 0 0 0-.287 0 .198.198 0 0 0 0 .285l3.262 3.23a1.084 1.084 0 0 1 0 1.54 1.11 1.11 0 0 1-1.554.001L7.172 11.35a.205.205 0 0 0-.287.001.202.202 0 0 0 .001.285l3.722 3.687a.441.441 0 0 1 0 .627.447.447 0 0 1-.633 0l-3.721-3.687a1.088 1.088 0 0 1-.002-1.54 1.108 1.108 0 0 1 1.552 0l3.263 3.235a.207.207 0 0 0 .289 0 .202.202 0 0 0 0-.285l-3.263-3.234a1.082 1.082 0 0 1 0-1.537 1.106 1.106 0 0 1 1.552 0l3.263 3.232a.202.202 0 0 0 .346-.14.201.201 0 0 0-.059-.143l-3.73-3.696a.441.441 0 0 1 0-.627.45.45 0 0 1 .632 0l3.728 3.695c.208.206.32.479.32.77a1.07 1.07 0 0 1-.32.769zm1.851-4.735a2.15 2.15 0 0 1-2.159-2.14 2.15 2.15 0 0 1 2.159-2.142 2.15 2.15 0 0 1 2.157 2.141 2.15 2.15 0 0 1-2.157 2.14zM27.107 10.59h3.457c1.746 0 3.08.454 4.002 1.366.922.912 1.382 2.09 1.382 3.534 0 1.417-.457 2.585-1.367 3.51-.912.922-2.206 1.384-3.883 1.384h-3.59V10.59zm.764.63v8.534h2.784c1.277 0 2.34-.39 3.19-1.168.85-.78 1.276-1.81 1.276-3.096 0-1.258-.42-2.284-1.257-3.078-.84-.796-1.924-1.192-3.257-1.192H27.87z" fill="#fff"></path><path d="M46.185 10.59v.63H41.56v3.92h4.505v.638H41.56v3.976h4.738v.631h-5.502V10.59h5.39zM58.255 10.59l-4.141 9.893h-.225l-4.157-9.893h.775l3.502 8.287 3.474-8.287h.772zM63.148 10.59h-.764v9.796h.764V10.59z" fill="#fff"></path><path fill-rule="evenodd" clip-rule="evenodd" d="M76.589 11.285v.828c-1.197-.63-2.371-.946-3.52-.946-1.228 0-2.252.413-3.077 1.24-.826.828-1.238 1.863-1.238 3.1 0 1.253.415 2.284 1.244 3.092.83.81 1.89 1.213 3.177 1.213 1.073 0 2.245-.335 3.514-1.003v.784c-1.168.614-2.336.92-3.5.92-1.505 0-2.76-.479-3.759-1.435-1.003-.955-1.503-2.145-1.503-3.572 0-1.435.512-2.635 1.535-3.597 1.022-.962 2.24-1.444 3.656-1.444 1.11 0 2.27.272 3.471.82z" fill="#fff"></path><path d="M86.538 10.59v.63h-4.626v3.92h4.505v.638h-4.505v3.976h4.738v.631h-5.502V10.59h5.39z" fill="#fff"></path><path fill-rule="evenodd" clip-rule="evenodd" d="M95.835 11.081v.834c-.858-.5-1.597-.75-2.214-.75-.594 0-1.09.18-1.487.537-.4.358-.599.802-.599 1.33 0 .38.117.72.353 1.023.236.305.728.597 1.477.878.75.28 1.297.514 1.642.701.342.187.635.46.876.814.24.355.36.817.36 1.381 0 .755-.278 1.388-.834 1.908-.557.519-1.236.779-2.036.779-.82 0-1.664-.285-2.532-.855v-.89c.958.695 1.786 1.044 2.49 1.044.583 0 1.078-.188 1.481-.563.403-.376.605-.838.605-1.386a1.82 1.82 0 0 0-.375-1.124c-.25-.335-.756-.646-1.52-.938-.764-.29-1.308-.523-1.635-.702a2.404 2.404 0 0 1-.837-.76c-.226-.33-.342-.755-.342-1.274 0-.717.28-1.332.833-1.838.557-.507 1.227-.76 2.009-.76.77-.005 1.53.2 2.285.611z" fill="#fff"></path></svg>