<svg xmlns="http://www.w3.org/2000/svg" width="24" height="25" fill="none" viewBox="0 0 24 25" class="hidden w-6 h-6 [&amp;_path]:fill-black group-hover:block " data-di-res-id="ccd1eb92-c6624c0d" data-di-rand="1731941671650">
   <path fill="#273F3F" fill-rule="evenodd" d="M1 3.5h3.18l.832 4.156c.004.028.01.056.017.084l1.67 8.347c.283 1.424 1.547 2.442 3 2.414H19.4c1.434.027 2.698-.99 2.98-2.415l1.602-8.398c.118-.616-.355-1.187-.982-1.187H6.82l-.84-4.196C5.888 1.837 5.478 1.5 5 1.5H1c-.552 0-1 .448-1 1s.448 1 1 1zm8 21c-1.105 0-2-.895-2-2 0-1.104.895-2 2-2s2 .896 2 2c0 1.105-.895 2-2 2zm11 0c-1.105 0-2-.895-2-2 0-1.104.895-2 2-2s2 .896 2 2c0 1.105-.895 2-2 2z" clip-rule="evenodd"/>
</svg>