<svg width="20" height="20" viewBox="0 0 20 20" fill="none" xmlns="http://www.w3.org/2000/svg">
<path fill-rule="evenodd" clip-rule="evenodd" d="M15.4885 3.33317H12.5003C12.0401 3.33317 11.667 2.96007 11.667 2.49984C11.667 2.0396 12.0401 1.6665 12.5003 1.6665H17.5003C17.7295 1.6665 17.9372 1.75905 18.0878 1.90882C18.089 1.90999 18.0902 1.91117 18.0913 1.91235C18.1673 1.98875 18.2285 2.07978 18.2704 2.18085C18.306 2.2666 18.3276 2.35957 18.3326 2.45695C18.3333 2.47116 18.3337 2.48545 18.3337 2.49984C18.3337 2.50014 18.3337 2.50043 18.3337 2.50073V7.49984C18.3337 7.96007 17.9606 8.33317 17.5003 8.33317C17.0401 8.33317 16.667 7.96007 16.667 7.49984V4.51168L8.92291 12.2558C8.59748 12.5812 8.06984 12.5812 7.7444 12.2558C7.41897 11.9303 7.41897 11.4027 7.7444 11.0772L15.4885 3.33317ZM14.167 10.8332C14.167 10.3729 14.5401 9.99984 15.0003 9.99984C15.4606 9.99984 15.8337 10.3729 15.8337 10.8332V15.8332C15.8337 17.2139 14.7144 18.3332 13.3337 18.3332H4.16699C2.78628 18.3332 1.66699 17.2139 1.66699 15.8332V6.6665C1.66699 5.28579 2.78628 4.1665 4.16699 4.1665H9.16699C9.62723 4.1665 10.0003 4.5396 10.0003 4.99984C10.0003 5.46007 9.62723 5.83317 9.16699 5.83317H4.16699C3.70675 5.83317 3.33366 6.20627 3.33366 6.6665V15.8332C3.33366 16.2934 3.70675 16.6665 4.16699 16.6665H13.3337C13.7939 16.6665 14.167 16.2934 14.167 15.8332V10.8332Z" fill="#378189"/>
</svg>
