<svg width="97" height="18" viewBox="0 0 97 18" fill="white" xmlns="http://www.w3.org/2000/svg" data-di-rand="1726573645129"><path d="M94.81 6.264h.635v.12h-.254v.643h-.127v-.643h-.254v-.12zM95.571 6.264h.212l.211.562.212-.562h.17v.723h-.128v-.563l-.211.563h-.127l-.212-.563v.563h-.127v-.723zM27.59 9.6c0 1.809-1.524 3.296-3.47 3.296-.719 0-1.354-.2-1.904-.522v2.532a.791.791 0 0 1-.803.804.819.819 0 0 1-.804-.804V9.6c0-1.809 1.565-3.296 3.469-3.296 1.988 0 3.511 1.487 3.511 3.296zm-1.693 0c0-.925-.804-1.688-1.777-1.688-.973 0-1.777.763-1.777 1.688 0 .925.804 1.688 1.777 1.688.973 0 1.777-.764 1.777-1.688zM34.442 9.239v2.854c0 .442-.38.804-.846.804-.465 0-.888-.362-.888-.804V9.239c0-.684-.593-1.287-1.354-1.287-.761 0-1.354.603-1.354 1.287v2.854c0 .442-.38.804-.846.804-.465 0-.846-.362-.846-.804v-8.08c0-.442.38-.804.846-.804.465 0 .846.362.846.804v2.613a3.181 3.181 0 0 1 1.354-.322c1.692 0 3.088 1.327 3.088 2.935zM41.465 11.288c-.17-.402-.635-.442-1.058-.321-.677.402-1.353.442-1.946.402-.296-.04-.592-.12-.804-.241l3.554-1.89c.38-.2.254-1.005.042-1.326-.888-1.488-2.834-2.01-4.442-1.126-1.65.885-2.284 2.854-1.353 4.462.507.925 1.48 1.568 2.75 1.689 1.31.12 2.2-.161 2.75-.563.422-.282.634-.684.507-1.086zm-3.892-3.256c.719-.402 1.523-.24 2.03.322l-2.876 1.528c-.254-.764.127-1.448.846-1.85zM73.7 11.288c-.169-.402-.634-.442-1.057-.321-.677.402-1.354.442-1.946.402-.296-.04-.592-.12-.804-.241l3.554-1.89c.38-.2.254-1.005.042-1.326-.888-1.488-2.834-2.01-4.442-1.126-1.65.885-2.284 2.854-1.353 4.462.507.925 1.48 1.568 2.75 1.689 1.31.12 2.199-.161 2.749-.563.423-.282.677-.684.508-1.086zM69.81 8.032c.719-.402 1.523-.24 2.03.322l-2.876 1.528c-.212-.764.169-1.448.846-1.85zM87.83 11.288c-.17-.402-.635-.442-1.058-.321-.676.402-1.353.442-1.946.402-.296-.04-.592-.12-.803-.241l3.553-1.89c.38-.2.254-1.005.043-1.326-.889-1.488-2.835-2.01-4.442-1.126-1.65.885-2.285 2.854-1.354 4.462.508.925 1.48 1.568 2.75 1.689 1.311.12 2.2-.161 2.75-.563.422-.282.676-.684.507-1.086zm-3.892-3.256c.72-.402 1.523-.24 2.03.322l-2.876 1.528c-.212-.764.127-1.448.846-1.85zM42.48 12.092V9.238c0-1.608 1.354-2.934 3.088-2.934 1.692 0 3.088 1.326 3.088 2.934v2.854c0 .442-.38.804-.846.804-.465 0-.888-.362-.888-.804V9.238c0-.683-.592-1.286-1.354-1.286-.761 0-1.354.603-1.354 1.286v2.854c0 .442-.38.804-.846.804-.507 0-.888-.362-.888-.804zM49.164 9.641c0-1.809 1.565-3.296 3.469-3.296s3.469 1.487 3.469 3.296c0 1.809-1.565 3.296-3.469 3.296-1.946 0-3.469-1.447-3.469-3.296zm5.246 0c0-.925-.804-1.688-1.777-1.688-.973 0-1.777.763-1.777 1.688 0 .925.804 1.688 1.777 1.688.973 0 1.777-.764 1.777-1.688zM66.551 9.038v3.055c0 .442-.38.804-.846.804-.465 0-.888-.362-.888-.804V9.038c0-.603-.508-1.085-1.142-1.085-.635 0-1.143.482-1.143 1.085v3.055c0 .442-.38.804-.846.804-.465 0-.846-.362-.846-.804V9.038c0-.603-.508-1.085-1.142-1.085-.635 0-1.142.482-1.142 1.085v3.055c0 .442-.381.804-.889.804-.465 0-.846-.362-.846-.804V9.038c0-1.528 1.27-2.693 2.877-2.693.761 0 1.48.281 1.988.763.508-.482 1.227-.763 1.989-.763 1.607 0 2.876 1.206 2.876 2.693zM74.589 12.092V9.238c0-1.608 1.354-2.934 3.088-2.934 1.692 0 3.088 1.326 3.088 2.934v2.854c0 .442-.38.804-.846.804-.465 0-.888-.362-.888-.804V9.238c0-.683-.593-1.286-1.354-1.286-.761 0-1.354.603-1.354 1.286v2.854c0 .442-.38.804-.846.804-.507 0-.888-.362-.888-.804zM94.09 11.57c.297.362.255.885-.084 1.166-.169.12-.38.201-.55.201-.254 0-.507-.08-.634-.322l-1.523-1.728-1.48 1.728a.9.9 0 0 1-.678.322c-.169 0-.38-.08-.55-.201-.38-.281-.423-.804-.127-1.166L90.2 9.6l-1.735-1.97c-.296-.36-.254-.883.127-1.165a.947.947 0 0 1 1.227.08l1.48 1.729 1.524-1.728c.296-.362.846-.402 1.227-.08.38.28.422.803.084 1.165L92.441 9.6l1.65 1.97z" fill="#fff"></path><path fill-rule="evenodd" clip-rule="evenodd" d="M11.513 9.038c0 1.045-.888 1.889-1.988 1.889s-1.988-.844-1.988-1.89c0-1.044.888-1.889 1.988-1.889s1.988.845 1.988 1.89z" fill="#fff"></path><path fill-rule="evenodd" clip-rule="evenodd" d="M4.28 15.75V9.079c0-2.734 2.326-4.985 5.245-4.985 2.877 0 5.246 2.211 5.246 4.985 0 2.733-2.327 4.984-5.246 4.984-.592 0-1.142-.08-1.692-.281v3.457c.55.12 1.1.16 1.692.16 4.823 0 8.757-3.738 8.757-8.32 0-4.583-3.934-8.321-8.757-8.321C4.702.757.768 4.495.768 9.077c0 2.734 1.396 5.146 3.511 6.674z" fill="#fff"></path></svg>