<svg width="73" height="72" viewBox="0 0 73 72" fill="none" xmlns="http://www.w3.org/2000/svg">
<path id="&#239;&#138;&#139;" d="M36.25 72C16.2812 72 0.25 55.9688 0.25 36C0.25 16.1719 16.2812 0 36.25 0C56.0781 0 72.25 16.1719 72.25 36C72.25 55.9688 56.0781 72 36.25 72ZM31.75 27C31.75 24.6094 29.6406 22.5 27.25 22.5C24.7188 22.5 22.75 24.6094 22.75 27V45C22.75 47.5312 24.7188 49.5 27.25 49.5C29.6406 49.5 31.75 47.5312 31.75 45V27ZM49.75 27C49.75 24.6094 47.6406 22.5 45.25 22.5C42.7188 22.5 40.75 24.6094 40.75 27V45C40.75 47.5312 42.7188 49.5 45.25 49.5C47.6406 49.5 49.75 47.5312 49.75 45V27Z" fill="black"/>
</svg>
