<svg width="72" height="72" viewBox="0 0 72 72" fill="none" xmlns="http://www.w3.org/2000/svg">
<path id="&#239;&#133;&#132;" d="M72 36C72 55.9688 55.8281 72 36 72C16.0312 72 0 55.9688 0 36C0 16.1719 16.0312 0 36 0C55.8281 0 72 16.1719 72 36ZM26.4375 20.8125C25.3125 21.375 24.75 22.5 24.75 23.625V48.375C24.75 49.6406 25.3125 50.7656 26.4375 51.3281C27.4219 52.0312 28.8281 51.8906 29.8125 51.3281L50.0625 38.9531C51.0469 38.25 51.75 37.2656 51.75 36C51.75 34.875 51.0469 33.75 50.0625 33.1875L29.8125 20.8125C28.8281 20.1094 27.4219 20.1094 26.4375 20.6719V20.8125Z" fill="#378089"/>
</svg>
