<svg width="24" height="24" viewBox="0 0 24 24" fill="none" xmlns="http://www.w3.org/2000/svg" class="hidden w-6 h-6 [&amp;_path]:fill-black group-hover:block " data-di-res-id="c80274dc-4aea2344" data-di-rand="1731943212683"><path d="M12.0021 21C10.6025 21.0034 9.21961 20.7243 7.9446 20.1824L3.35629 21.9342C2.63431 22.2099 1.88586 21.5973 2.0133 20.8351L2.91187 15.4604C2.30804 14.2202 1.99586 12.8678 1.99964 11.4996C2.00112 7.88808 4.1558 4.59748 7.54553 2.99747C8.92856 2.33771 10.4552 1.99623 11.9996 2.00003L12.5811 2.00139C17.6491 2.26545 21.7154 6.10587 21.9996 11L21.9996 11.4973C22.0037 12.9824 21.6367 14.4466 20.9295 15.7697C19.2297 18.9799 15.7727 20.9986 12.0021 21Z" fill="black"></path></svg>