<svg xmlns="http://www.w3.org/2000/svg" width="24" height="24" fill="none" viewBox="0 0 24 24" class="w-6 h-6 [&amp;_path]:fill-black group-hover:hidden " data-di-res-id="c991713b-7caaba8" data-di-rand="1731566797234"><path fill="#273F3F" fill-rule="evenodd" d="M7.945 20.182c1.275.542 2.657.821 4.057.818 3.77-.001 7.228-2.02 8.928-5.23.707-1.323 1.074-2.788 1.07-4.273V11c-.285-4.894-4.35-8.735-9.419-8.999L12 2c-1.545-.004-3.071.338-4.454.997C4.156 4.597 2 7.888 2 11.5c-.004 1.368.308 2.72.912 3.96l-.899 5.375c-.127.762.621 1.375 1.343 1.1l4.589-1.753zm.462-1.985c-.247-.117-.532-.129-.788-.031l-3.345 1.277.665-3.978c.036-.218 0-.442-.105-.637-.552-1.032-.838-2.171-.834-3.325C4 8.674 5.699 6.08 8.403 4.804c1.115-.532 2.346-.807 3.594-.804h.532c4.02.21 7.25 3.263 7.472 7.058L20 11.5c.003 1.157-.283 2.296-.835 3.328l-.002.004C17.815 17.38 15.043 19 11.999 19c-1.25.003-2.48-.272-3.592-.803z" clip-rule="evenodd"></path></svg>