<svg width="24" height="24" viewBox="0 0 24 24" fill="none" xmlns="http://www.w3.org/2000/svg" data-testid="star-unfilled2" class="w-6 h-6 [&amp;_path]:fill-black group-hover:hidden " data-di-res-id="c991713b-7403fd2" data-di-rand="1731566797234"><path fill-rule="evenodd" clip-rule="evenodd" d="M11.1034 1.55738L8.24585 7.34647L1.85548 8.28051C1.03557 8.40036 0.708785 9.4082 1.30238 9.98636L5.92559 14.4894L4.8345 20.851C4.69438 21.6679 5.55193 22.2909 6.28556 21.9051L12.0001 18.8998L17.7147 21.9051C18.4483 22.2909 19.3058 21.6679 19.1657 20.851L18.0746 14.4894L22.6978 9.98636C23.2914 9.4082 22.9647 8.40036 22.1447 8.28051L15.7544 7.34647L12.8968 1.55738C12.53 0.814208 11.4702 0.814208 11.1034 1.55738ZM9.80682 8.70262L12.0001 4.25925L14.1934 8.70262C14.3389 8.99747 14.6201 9.20193 14.9455 9.24949L19.8517 9.9666L16.3024 13.4236C16.0665 13.6534 15.9588 13.9845 16.0145 14.309L16.8519 19.1917L12.4656 16.8849C12.1742 16.7317 11.826 16.7317 11.5347 16.8849L7.14829 19.1917L7.98572 14.309C8.04138 13.9845 7.93372 13.6534 7.69784 13.4236L4.14852 9.9666L9.05474 9.24949C9.38009 9.20193 9.66128 8.99747 9.80682 8.70262Z" fill="black"></path></svg>