<svg width="97" height="33" viewBox="0 0 97 33" fill="white" xmlns="http://www.w3.org/2000/svg" data-di-rand="1726573645130"><path d="M79.481 1.445s3.756 1.467 7.031 4.274c2.637 2.255 8.374 8.31-1.054 19.271l2.844 4.337c6.136-5.125 18.281-21.605-8.82-27.882zM38.526 4.126c-5.433 1.703-10.467 3.816-14.861 6.324a19.529 19.529 0 0 1 1.966-.095c1.981 0 3.994.284 5.512.773l.24.079c4.107-2.224 9.236-4.069 14.382-5.725a72.02 72.02 0 0 1 33.493-2.46C69.974-.432 53.866-.684 38.526 4.126zM15.515 17.94.511 31.96l2.285-.678s9.108-6.545 14.078-9.304c-.8-.978-1.327-2.271-1.358-4.038z" fill="#fff"></path><path d="m76.11 22.703-5.162-8.343h5.545l2.989 5.788 3.068-5.788h5.209l-5.21 8.343 5.721 9.257h-5.672l-3.452-6.482-3.42 6.482h-5.385l5.769-9.257zM57.126 14.36h12.56v3.328h-7.814v3.627h7.382v3.327h-7.382v3.99h8.102v3.328H57.126v-17.6zM54.522 14.36H49.76v17.6h4.762v-17.6zM47.251 28.254c-1.039.315-2.19.52-3.308.52-3.467 0-5.944-2.097-5.944-5.551 0-3.28 2.19-5.693 5.56-5.693 1.295 0 2.494.268 3.692.788v-3.721c-1.294-.316-2.605-.537-3.947-.537-5.88 0-10.21 3.044-10.21 9.179 0 6.655 5.496 9.02 10.242 9.02a18.39 18.39 0 0 0 3.931-.394v-3.611h-.016zM23.042 32.149c-1.997 0-4.234-.316-5.88-.82l.431-4.085c1.582.805 3.5 1.23 5.45 1.23.862 0 3.483 0 3.483-2.097 0-1.656-1.726-2.176-3.724-2.775-2.748-.82-5.864-1.751-5.864-5.883 0-5.409 6.072-5.992 8.677-5.992 1.822 0 3.707.268 5.065.693l-.32 3.801c-1.294-.552-2.812-.851-4.362-.851-1.038 0-3.77 0-3.77 2.002 0 1.404 1.613 1.861 3.499 2.382 2.716.756 6.088 1.687 6.088 5.898-.016 5.393-4.778 6.497-8.773 6.497z" fill="#fff"></path></svg>