<svg width="14" height="14" viewBox="0 0 14 14" fill="none" xmlns="http://www.w3.org/2000/svg">
<path d="M8.75 1.5C8.3125 1.5 8 1.1875 8 0.75C8 0.34375 8.3125 0 8.75 0H13.25C13.6562 0 14 0.34375 14 0.75V5.25C14 5.6875 13.6562 6 13.25 6C12.8125 6 12.5 5.6875 12.5 5.25V2.5625L6.25 8.78125C5.96875 9.09375 5.5 9.09375 5.21875 8.78125C4.90625 8.5 4.90625 8.03125 5.21875 7.71875L11.4375 1.5H8.75ZM0 2.75C0 1.8125 0.78125 1 1.75 1H5.25C5.65625 1 6 1.34375 6 1.75C6 2.1875 5.65625 2.5 5.25 2.5H1.75C1.59375 2.5 1.5 2.625 1.5 2.75V12.25C1.5 12.4062 1.59375 12.5 1.75 12.5H11.25C11.375 12.5 11.5 12.4062 11.5 12.25V8.75C11.5 8.34375 11.8125 8 12.25 8C12.6562 8 13 8.34375 13 8.75V12.25C13 13.2188 12.1875 14 11.25 14H1.75C0.78125 14 0 13.2188 0 12.25V2.75Z" fill="#378189"/>
</svg>