<svg width="14" height="14" viewBox="0 0 14 14" fill="currentColor" xmlns="http://www.w3.org/2000/svg" data-di-res-id="af0a6100-98a2a409" data-di-rand="1732172456719"><path d="M6.416 3.158 4.496 5.08a.583.583 0 1 1-.826-.825l2.917-2.916M6.416 3.158V8.75a.583.583 0 1 0 1.167 0V3.158l1.92 1.921a.583.583 0 1 0 .825-.825L7.412 1.337a.582.582 0 0 0-.823-.002" fill="#2A3C3C"></path><path d="M11.666 8.75a.583.583 0 0 1 1.167 0v2.333a1.75 1.75 0 0 1-1.75 1.75H2.916a1.75 1.75 0 0 1-1.75-1.75V8.75a.583.583 0 1 1 1.167 0v2.333c0 .322.26.584.583.584h8.167a.583.583 0 0 0 .583-.584V8.75z" fill="#2A3C3C"></path></svg>