<svg width="16" height="15" viewBox="0 0 16 15" fill="none" xmlns="http://www.w3.org/2000/svg">
<path d="M7.84766 12.1719L4.10156 14.1953C3.88281 14.3047 3.63672 14.2773 3.41797 14.1406C3.22656 14.0039 3.11719 13.7305 3.14453 13.4844L3.88281 9.24609L0.847656 6.23828C0.65625 6.04688 0.601562 5.80078 0.683594 5.55469C0.765625 5.33594 0.957031 5.14453 1.20312 5.11719L5.38672 4.48828L7.27344 0.632812C7.38281 0.414062 7.60156 0.25 7.84766 0.25C8.12109 0.25 8.33984 0.414062 8.44922 0.632812L10.3359 4.48828L14.5195 5.11719C14.7656 5.14453 14.957 5.33594 15.0391 5.55469C15.1211 5.80078 15.0664 6.04688 14.875 6.23828L11.8398 9.24609L12.5508 13.4844C12.6055 13.7305 12.4961 14.0039 12.3047 14.1406C12.0859 14.2773 11.8125 14.3047 11.5938 14.1953L7.84766 12.1719ZM6.17969 4.87109C6.04297 5.14453 5.79688 5.30859 5.52344 5.36328L1.75 5.91016L4.48438 8.61719C4.70312 8.80859 4.78516 9.10938 4.73047 9.38281L4.10156 13.2109L7.4375 11.4062C7.71094 11.2695 8.01172 11.2695 8.28516 11.4062L11.6211 13.2109L10.9922 9.38281C10.9375 9.10938 11.0195 8.80859 11.2383 8.61719L13.9453 5.91016L10.1992 5.36328C9.89844 5.30859 9.65234 5.14453 9.54297 4.87109L7.84766 1.42578L6.17969 4.87109Z" fill="#FFC738"/>
</svg>