<svg width="27" height="26" viewBox="0 0 27 26" fill="none" xmlns="http://www.w3.org/2000/svg" data-testid="star-unfilled" aria-hidden="true" class="" data-di-rand="1720603465872"><path d="M12.848 1.613a.5.5 0 0 1 .951 0l2.314 7.122a.5.5 0 0 0 .476.346h7.488a.5.5 0 0 1 .294.904l-6.058 4.402a.5.5 0 0 0-.182.559l2.314 7.122a.5.5 0 0 1-.77.559l-6.058-4.402a.5.5 0 0 0-.588 0l-6.058 4.402a.5.5 0 0 1-.77-.56l2.315-7.121a.5.5 0 0 0-.182-.559L2.276 9.985a.5.5 0 0 1 .294-.904h7.488a.5.5 0 0 0 .476-.346l2.314-7.122z" fill="#E9ECEC"></path><path d="m13.323 1.768 2.314 7.122a1 1 0 0 0 .952.69h7.488l-6.058 4.402a1 1 0 0 0-.364 1.119l2.314 7.121-6.058-4.401a1 1 0 0 0-1.175 0l-6.059 4.401L8.991 15.1a1 1 0 0 0-.363-1.117L2.57 9.58h7.488a1 1 0 0 0 .951-.691l2.314-7.122z" stroke="#273F3F" stroke-opacity="0.2"></path></svg>