<svg width="70" height="36" viewBox="0 0 70 36" fill="none" xmlns="http://www.w3.org/2000/svg">
<path d="M67.0469 7.95312C67.9609 8.79688 67.9609 10.2734 67.0469 11.1172L49.0469 29.1172C48.2031 30.0312 46.7266 30.0312 45.8828 29.1172L36.8828 20.1172C35.9688 19.2734 35.9688 17.7969 36.8828 16.9531C37.7266 16.0391 39.2031 16.0391 40.0469 16.9531L47.5 24.3359L63.8828 7.95312C64.7266 7.03906 66.2031 7.03906 67.0469 7.95312Z" fill="#0E8554"/>
<path d="M33.0469 7.95312C33.9609 8.79688 33.9609 10.2734 33.0469 11.1172L15.0469 29.1172C14.2031 30.0312 12.7266 30.0312 11.8828 29.1172L2.88281 20.1172C1.96875 19.2734 1.96875 17.7969 2.88281 16.9531C3.72656 16.0391 5.20312 16.0391 6.04688 16.9531L13.5 24.3359L29.8828 7.95312C30.7266 7.03906 32.2031 7.03906 33.0469 7.95312Z" fill="#0E8554"/>
</svg>
