<svg width="21" height="20" viewBox="0 0 21 20" fill="none" xmlns="http://www.w3.org/2000/svg">
<path d="M3.10714 0H17.3929C18.9554 0 20.25 1.29464 20.25 2.85714V17.1429C20.25 18.75 18.9554 20 17.3929 20H3.10714C1.5 20 0.25 18.75 0.25 17.1429V2.85714C0.25 1.29464 1.5 0 3.10714 0ZM16.3661 3.75H14.2232L10.7411 7.76786L7.70536 3.75H3.33036L8.55357 10.625L3.59821 16.25H5.74107L9.58036 11.9196L12.8839 16.25H17.1696L11.7232 9.0625L16.3661 3.75ZM14.6696 15H13.4643L5.83036 4.95536H7.08036L14.6696 15Z" fill="black"/>
</svg>