<svg xmlns="http://www.w3.org/2000/svg" width="24" height="24" fill="currentColor" viewBox="0 0 24 24" data-di-res-id="467b40d0-70f0fd7b" data-di-rand="1732518119099"><path fill="#FFFFFF" fill-rule="evenodd" d="M12 12c-2.762 0-5-2.239-5-5s2.238-5 5-5c2.761 0 5 2.239 5 5s-2.239 5-5 5zm0-2c1.656 0 3-1.343 3-3s-1.344-3-3-3c-1.657 0-3 1.343-3 3s1.343 3 3 3zm9.99 11c0 .552-.448 1-1 1H3.01c-.552 0-.999-.448-.999-1 0 0-.333-7 9.99-7 10.322 0 9.99 7 9.99 7zM12 16c-8 0-8 4-8 4h16s0-4-8-4z" clip-rule="evenodd"></path></svg>