<svg xmlns="http://www.w3.org/2000/svg" width="24" height="25" fill="none" viewBox="0 0 24 25" data-di-rand="1735276336942"><path fill="#273F3F" fill-rule="evenodd" d="M9.435 3.842l-.003.005-8.47 14.14c-.541.937-.544 2.074-.017 3 .528.926 1.508 1.502 2.574 1.514h16.95c1.078-.012 2.057-.588 2.585-1.514s.525-2.063-.008-2.986L14.568 3.847c-.547-.901-1.52-1.449-2.568-1.449-1.049 0-2.021.548-2.565 1.444zM2.683 19.996c-.176-.308-.175-.687.003-.995l8.46-14.123c.181-.298.505-.48.854-.48.35 0 .674.183.855.482l8.467 14.135c.17.294.17.672-.005.981-.176.309-.503.501-.858.505H3.529c-.344-.004-.67-.196-.846-.505zM12 18.501c.552 0 1-.448 1-1s-.448-1-1-1c-.553 0-1 .448-1 1s.447 1 1 1zm0-10c-.553 0-1 .448-1 1v4c0 .552.447 1 1 1 .552 0 1-.448 1-1v-4c0-.552-.448-1-1-1z" clip-rule="evenodd"></path></svg>